<?xml version="1.0" encoding="utf-8"?>
<svg viewBox="-100.627 -100.627 201.254 201.254" xmlns="http://www.w3.org/2000/svg" xmlns:bx="https://boxy-svg.com">
  <defs>
    <bx:grid x="0" y="0" width="100.627" height="100.627"/>
  </defs>
  <g>
    <rect x="-17.749" y="-14" width="190.278" height="28" rx="14" ry="14" style="fill: rgb(35, 35, 35);"/>
    <path transform="matrix(-0.760532, 0.801468, -0.801468, -0.760532, 353.392548, 0.71116)" d="M 214.097 185.186 L 225.903 185.186 L 231.16 212.835 A 23.047 23.047 0 0 1 235.729 216.155 L 263.649 212.611 L 267.298 223.839 L 242.626 237.383 A 23.047 23.047 0 0 1 240.881 242.754 L 252.88 268.212 L 243.329 275.152 L 222.824 255.873 A 23.047 23.047 0 0 1 217.176 255.873 L 196.671 275.152 L 187.12 268.212 L 199.119 242.754 A 23.047 23.047 0 0 1 197.374 237.383 L 172.702 223.839 L 176.351 212.611 L 204.271 216.155 A 23.047 23.047 0 0 1 208.84 212.835 Z M 220 222.302 A 10.698 10.698 0 0 0 220 243.698 A 10.698 10.698 0 0 0 220 222.302" style="fill: rgb(35, 35, 35);" bx:shape="cog 220 233 10.698 23.047 47.814 0.609 5 1@4eec1106"/>
  </g>
  <g transform="matrix(1.379653, 0, 0, 1.379653, 162.243469, -704.908997)">
    <title>Nut</title>
    <path d="M 466.49 337.48 Q 467 337.186 467.51 337.48 L 474.989 341.799 Q 475.499 342.093 475.499 342.682 L 475.499 351.318 Q 475.499 351.907 474.989 352.201 L 467.51 356.52 Q 467 356.814 466.49 356.52 L 459.011 352.201 Q 458.501 351.907 458.501 351.318 L 458.501 342.682 Q 458.501 342.093 459.011 341.799 Z" transform="matrix(0.961486, -0.274857, 0.274849, 0.961491, -661.983904, 305.652948)" style="fill: rgb(158, 158, 158);" bx:shape="n-gon 467 347 9.814 9.814 6 0.06 1@ccc7ea17"/>
    <ellipse transform="matrix(0.296399, -0.955061, 0.955065, 0.296393, -214.100666, 581.143512)" cx="95.66" cy="71.356" rx="5.904" ry="5.904" style="fill: rgb(58, 52, 52);"/>
  </g>
</svg>