<?xml version="1.0" encoding="utf-8"?>
<svg viewBox="-163.356 -227.196 421.02 260.864" xmlns="http://www.w3.org/2000/svg" xmlns:bx="https://boxy-svg.com">
  <g transform="matrix(-1.247682, -0.377845, -0.377845, 1.247682, 654.434448, -742.318237)">
    <title>shoe</title>
    <polygon style="stroke: rgb(0, 0, 0); fill: rgb(245, 245, 245); stroke-width: 0;" points="399.904 675.219 396.733 659.362 362.482 641.602 330.768 609.888 308.568 574.369 307.3 562.318 277.489 568.66 278.123 578.809 245.775 585.152 224.21 563.586 212.793 561.049 192.496 585.786 187.422 608.62 191.862 629.551 287.637 658.728 294.614 668.242 347.893 684.733 356.139 680.927 392.927 686.002" transform="matrix(1, 0, 0, 1, 0.000093, -0.000044)"/>
    <ellipse transform="matrix(-0.999998, 0, 0, -1.000005, 492.836298, 909.116149)" cx="177.161" cy="219.801" rx="6.468" ry="6.468" style="fill: rgb(54, 54, 54);"/>
    <polygon style="stroke: rgb(0, 0, 0); fill: rgb(255, 247, 81); stroke-width: 0;" points="297.786 668.876 295.249 675.219 344.088 689.173 345.356 684.099" transform="matrix(1, 0, 0, 1, 0.000202, -0.000096)"/>
    <polygon style="stroke: rgb(0, 0, 0); stroke-width: 0; fill: rgb(167, 0, 0);" points="304.763 677.756 302.526 686.568 330.768 693.613 333.305 686.002" transform="matrix(1, 0, 0, 1, 0.000204, -0.000095)"/>
    <polygon style="stroke: rgb(0, 0, 0); fill: rgb(76, 76, 76); stroke-width: 0;" points="189.324 614.328 287.637 651.751 360.579 676.487 396.065 682.163 391.959 687.871 357.04 682.428 347.559 685.033 293.98 667.608 285.434 659.561 191.194 629.818" transform="matrix(1, 0, 0, 1, -0.000059, 0.000026)"/>
    <polygon style="stroke: rgb(0, 0, 0); fill: rgb(76, 76, 76); stroke-width: 0;" points="276.332 568.001 274.997 579.559 310.918 574.19 303.675 560.488" transform="matrix(1, 0, 0, 1, -0.000085, 0.000044)"/>
    <polygon style="stroke: rgb(0, 0, 0); fill: rgb(76, 76, 76); stroke-width: 0;" points="245.035 660.461 220.679 679.294 340.997 626.465 364.799 610.308" transform="matrix(0.721156 0.692773 -0.692773 0.721156 521.385 -31.3142)"/>
    <polygon style="stroke: rgb(0, 0, 0); fill: rgb(76, 76, 76); stroke-width: 0;" points="308.044 599.865 306.64 613.097 344.401 606.95 336.788 591.264" transform="matrix(0.360809, 0.93264, -0.93264, 0.360809, 770.247115, 81.284677)" bx:origin="0.515 0.614"/>
    <polygon style="stroke: rgb(0, 0, 0); fill: rgb(76, 76, 76); stroke-width: 0;" points="343.37 630.671 342.272 640.172 371.797 635.758 365.845 624.495" transform="matrix(0.575684, 0.817672, -0.817672, 0.575684, 666.091666, -17.818451)" bx:origin="0.269 0.535"/>
  </g>
</svg>