<?xml version="1.0" encoding="utf-8"?>
<svg viewBox="0 0 500 500" xmlns="http://www.w3.org/2000/svg" xmlns:bx="https://boxy-svg.com">
  <g>
    <title>Layer 1</title>
    <polygon style="fill: rgb(171, 77, 79);" points="2.94 186.96 28.153 192.924 -39.946 446.272 -63.932 478.21 -115.445 516.042 -120.401 507.679 -78.255 465.303 -59.273 437.793"/>
    <polyline style="fill: rgb(88, 21, 22);" points="-107.564 505.993 -74.546 479.579 -46.33 445.359 21.194 190.826 27.992 192.895 -39.394 445.888 -64.516 478.99 -105.894 508.841 -115.351 515.343 -118.603 512.978 -118.307 508.841"/>
    <ellipse transform="matrix(-0.998459, 0.055473, -0.055469, -0.998462, 96.841621, 899.604868)" cx="192.55" cy="399.97" rx="12.762" ry="12.762" style="fill: rgb(88, 21, 22);"/>
    <g id="svg_29">
      <rect width="0" fill="#56aaff" stroke="#000000" stroke-width="0" stroke-dasharray="null" stroke-linejoin="round" stroke-linecap="null" x="1120.73268" y="854.12584" height="14.00476" id="svg_30"/>
      <polygon id="svg_40" fill="#56aaff"/>
      <rect stroke="#000000" stroke-width="0" x="861.78183" y="860.03813" width="345.00162" height="17.89814" transform="matrix(-1.17377, 0.244865, -0.252321, -1.13909, 2145.4, 1292.41)" id="svg_12" stroke-linejoin="round" style="fill: rgb(171, 77, 79);"/>
      <rect stroke="#000000" stroke-width="0" x="935.28645" y="372.68478" width="426.33544" height="18.53436" transform="matrix(-0.660585, -0.972887, 1.00251, -0.641065, 1143.54, 1658.85)" id="svg_11" stroke-linejoin="round" style="fill: rgb(171, 77, 79);"/>
      <rect stroke="#000000" stroke-width="0" x="1075.697" y="1473.615" width="410.278" height="7.267" transform="matrix(-0.978925, 0.204218, -0.216287, -0.976408, 2291.604215, 1742.371437)" stroke-linejoin="round" id="svg_28" style="fill: rgb(88, 21, 22);"/>
      <rect x="729.014" y="20.301" width="75.417" height="25.509" transform="matrix(0.22989, -0.973216, 0.973216, 0.22989, 435.67483, 732.067023)" style="fill: rgb(60, 58, 58);" rx="2.303" ry="2.303"/>
      <rect stroke="#000000" stroke-width="0" x="516.30452" y="380.0543" width="480.81255" height="21.86771" transform="matrix(-1.20059, 0, 0, -1.16511, 1245.76, 498.231)" id="svg_8" stroke-linejoin="round" style="fill: rgb(171, 77, 79);"/>
      <rect stroke="#000000" stroke-width="0" x="523.80522" y="394.97639" width="467.47923" height="8.53435" transform="matrix(-1.20059, 0, 0, -1.16511, 1247.76, 517.467)" stroke-linejoin="round" id="svg_14" style="fill: rgb(88, 21, 22);"/>
      <rect stroke="#000000" stroke-width="0" x="588.25701" y="241.72197" width="529.35226" height="22.09616" transform="matrix(0.268265, -1.13565, 1.17023, 0.260338, 44.5502, 1210.65)" id="svg_10" stroke-linejoin="round" style="fill: rgb(171, 77, 79);"/>
      <rect stroke="#000000" stroke-width="0" x="733.685" y="265.682" width="598.3" height="7.001" transform="matrix(0.232322, -0.972639, 0.975747, 0.219332, 79.861253, 1242.878651)" stroke-linejoin="round" id="svg_26" style="fill: rgb(88, 21, 22);"/>
      <rect x="352.597" y="-25.369" width="85.123" height="28.004" transform="matrix(-0.198585, 0.980084, -0.980084, -0.198585, 123.534443, -397.742217)" rx="8.91" ry="8.91" style="fill: rgb(16, 12, 12);"/>
      <rect stroke="#000000" stroke-width="0" x="127.60902" y="501.29514" width="155.81246" height="25.07592" transform="matrix(-0.231509, 1.14324, -1.17806, -0.224668, 686.54, -20.0022)" id="svg_7" stroke-linejoin="round" style="fill: rgb(171, 77, 79);"/>
      <rect stroke="#000000" stroke-width="0" x="459.54818" y="470.42503" width="567.8336" height="26.69633" transform="matrix(-0.833136, -0.838914, 0.864459, -0.808518, 469.194, 1379.98)" id="svg_9" stroke-linejoin="round" style="fill: rgb(171, 77, 79);"/>
      <rect stroke="#000000" stroke-width="0" x="137.7655" y="510.77111" width="154.72775" height="8.49214" transform="matrix(-0.231509, 1.14324, -1.17806, -0.224668, 701.707, -29.3465)" stroke-linejoin="round" id="svg_21" style="fill: rgb(88, 21, 22);"/>
      <rect stroke="#000000" stroke-width="0" x="466.81218" y="487.9354" width="541.52025" height="8.07815" transform="matrix(-0.833136, -0.838914, 0.864459, -0.808518, 450.12, 1391.22)" stroke-linejoin="round" id="svg_22" style="fill: rgb(88, 21, 22);"/>
      <circle stroke-width="5" stroke-dasharray="null" stroke-linejoin="round" stroke-linecap="null" cx="320.952" cy="385.256" r="17" id="svg_24" style="stroke: rgb(88, 21, 22);" transform="matrix(1.000002, 0, 0, 1.000004, 179.604008, 212.445028)"/>
      <rect transform="matrix(0.973114, 0.230315, -0.24376, 0.969935, -24.341641, -280.871848)" id="svg_6" stroke="#000000" stroke-width="0" x="701.359" y="123.795" width="27.187" height="6.472" stroke-linejoin="round" style="fill: rgb(88, 21, 22);"/>
      <rect id="svg_13" transform="matrix(1.17161, 0.254421, -0.262168, 1.13699, -37.5072, -152.781)" stroke="#000000" stroke-width="0" x="90.83571" y="120.13612" width="23.70021" height="6.19558" stroke-linejoin="round" style="fill: rgb(88, 21, 22);"/>
      <rect id="svg_15" transform="matrix(1.1664, 0.276061, -0.284467, 1.13194, 10.4114, -145.906)" stroke="#000000" stroke-width="0" x="59.14658" y="272.92345" width="26.68528" height="6.19558" stroke-linejoin="round" style="fill: rgb(88, 21, 22);"/>
      <rect transform="matrix(0.37515, 0.550775, -0.567546, 0.364065, 673.331, -489.274)" id="svg_27" height="9.32563" width="753.78504" y="549.09894" x="715.59118" stroke-linecap="null" stroke-linejoin="round" stroke-dasharray="null" stroke-width="0" stroke="#000000" style="fill: rgb(88, 21, 22);"/>
      <rect x="-18.029" y="-66.238" width="108.546" height="26.023" transform="matrix(0.978457, 0.206451, -0.24517, 0.970287, -14.970696, 9.684134)" style="fill: rgb(36, 35, 35);" rx="7.847" ry="7.847" bx:origin="0.307 0.541"/>
    </g>
    <g>
      <title>Nut</title>
      <path d="M 466.49 337.48 Q 467 337.186 467.51 337.48 L 474.989 341.799 Q 475.499 342.093 475.499 342.682 L 475.499 351.318 Q 475.499 351.907 474.989 352.201 L 467.51 356.52 Q 467 356.814 466.49 356.52 L 459.011 352.201 Q 458.501 351.907 458.501 351.318 L 458.501 342.682 Q 458.501 342.093 459.011 341.799 Z" transform="matrix(0.961486, -0.274857, 0.274849, 0.961491, -661.983904, 305.652948)" style="fill: rgb(158, 158, 158);" bx:shape="n-gon 467 347 9.814 9.814 6 0.06 1@ccc7ea17"/>
      <ellipse transform="matrix(0.296399, -0.955061, 0.955065, 0.296393, -214.100666, 581.143512)" cx="95.66" cy="71.356" rx="5.904" ry="5.904" style="fill: rgb(58, 52, 52);"/>
    </g>
    <g transform="matrix(1, 0, 0, 1, 1057.608032, 13.101594)">
      <title>Nut</title>
    </g>
    <g transform="matrix(1, 0, 0, 1, 275.879303, 119.874153)">
      <polygon style="fill: rgb(216, 216, 216);" points="329.824 -174.71 341.329 -163.205 403.458 -158.603 419.565 -172.697 424.456 -172.697 405.471 -153.713 339.604 -158.891 324.647 -174.71"/>
      <polygon points="457.738 -199.36 361.901 -190.719 312.411 -192.29 288.059 -182.078 282.56 -166.367 337.549 -171.866 457.738 -167.152 476.591 -184.434 476.591 -188.362" style="fill: rgb(76, 76, 76);"/>
    </g>
    <g transform="matrix(0.315837, 0, 0, 0.315837, 118.209656, -191.820602)">
      <title>Nut</title>
      <path d="M 466.49 337.48 Q 467 337.186 467.51 337.48 L 474.989 341.799 Q 475.499 342.093 475.499 342.682 L 475.499 351.318 Q 475.499 351.907 474.989 352.201 L 467.51 356.52 Q 467 356.814 466.49 356.52 L 459.011 352.201 Q 458.501 351.907 458.501 351.318 L 458.501 342.682 Q 458.501 342.093 459.011 341.799 Z" transform="matrix(0.961486, -0.274857, 0.274849, 0.961491, -661.983904, 305.652948)" style="fill: rgb(158, 158, 158);" bx:shape="n-gon 467 347 9.814 9.814 6 0.06 1@ccc7ea17"/>
      <ellipse transform="matrix(0.296399, -0.955061, 0.955065, 0.296393, -214.100666, 581.143512)" cx="95.66" cy="71.356" rx="5.904" ry="5.904" style="fill: rgb(58, 52, 52);"/>
    </g>
    <g transform="matrix(0.303704, 0.086701, -0.086701, 0.303704, 158.785187, -165.281219)">
      <title>Nut</title>
      <path d="M 466.49 337.48 Q 467 337.186 467.51 337.48 L 474.989 341.799 Q 475.499 342.093 475.499 342.682 L 475.499 351.318 Q 475.499 351.907 474.989 352.201 L 467.51 356.52 Q 467 356.814 466.49 356.52 L 459.011 352.201 Q 458.501 351.907 458.501 351.318 L 458.501 342.682 Q 458.501 342.093 459.011 341.799 Z" transform="matrix(0.961486, -0.274857, 0.274849, 0.961491, -661.983904, 305.652948)" style="fill: rgb(158, 158, 158);" bx:shape="n-gon 467 347 9.814 9.814 6 0.06 1@ccc7ea17"/>
      <ellipse transform="matrix(0.296399, -0.955061, 0.955065, 0.296393, -214.100666, 581.143512)" cx="95.66" cy="71.356" rx="5.904" ry="5.904" style="fill: rgb(58, 52, 52);"/>
    </g>
    <g transform="matrix(1.481889, 0, 0, 1.481889, 197.421371, -19.430542)">
      <ellipse transform="matrix(-0.975536, 0.219839, -0.21984, -0.975536, -10.755074, -0.781769)" cx="160.025" cy="49.819" rx="14.017" ry="11.296" style="fill: rgb(16, 12, 12); stroke-width: 4.43577; vector-effect: non-scaling-stroke;"/>
      <g transform="matrix(0.782381, 0, 0, 0.782381, -34.736679, -45.727093)">
        <polygon style="fill: rgb(66, 66, 66);" points="-109.45 17.232 -181.167 22.883 -180.297 57.654 -109.45 58.523"/>
        <ellipse transform="matrix(-0.682615, 0.730778, -0.421045, -1.014202, -125.197407, 51.978512)" cx="51.196" cy="48.451" rx="13.611" ry="14.709" style="fill: rgb(66, 66, 66);"/>
        <polygon style="fill: rgb(236, 197, 133);" points="-170.741 17.547 -167.317 64.59 -144.511 65.146 -120.729 64.136 -124.775 29.331 -110.632 12.941 -110.016 17.522 -105.688 18.235 -102.256 20.628 -99.681 24.066 -97.141 20.065 -98.684 -5.072 -102.427 -16.529 61.369 -248.76 -4.484 -290.296 -143.474 -25.734" transform=""/>
        <ellipse transform="matrix(-0.682614, 0.730779, -0.421047, -1.014201, -44.111884, 51.588865)" cx="60.55" cy="57.301" rx="16.096" ry="17.396" style="fill: rgb(66, 66, 66);"/>
        <ellipse transform="matrix(-0.756431, 0.654074, -0.343648, -1.024851, -13.522642, 92.248637)" cx="79.753" cy="103.899" rx="10.151" ry="12.031"/>
      </g>
    </g>
  </g>
</svg>