<svg xmlns="http://www.w3.org/2000/svg" xmlns:bx="https://boxy-svg.com" viewBox="9.976 13.716 428.32 83.13"><defs><pattern id="pattern-0" width="25" height="25" patternUnits="userSpaceOnUse" viewBox="0 0 100 100"><path d="M0 0h50v100H0z"/></pattern></defs><g white-space="pre"><path fill="#333" d="M74.61 26.106c1.24 2.167 1.783 4.57 1.63 7.21-.16 2.633-.92 5.3-2.28 8-1.367 2.693-3.273 5.31-5.72 7.85-2.453 2.547-5.353 4.78-8.7 6.7a36.615 36.615 0 0 1-6.69 3.16 40.932 40.932 0 0 1-6.79 1.77c-1.427 2.913-2.93 5.593-4.51 8.04-1.587 2.453-3.293 4.593-5.12 6.42s-3.78 3.253-5.86 4.28c-2.073 1.02-4.32 1.53-6.74 1.53-1.86 0-3.58-.293-5.16-.88s-2.943-1.393-4.09-2.42a10.046 10.046 0 0 1-2.61-3.63c-.587-1.393-.82-2.897-.7-4.51.187-2.667.9-4.697 2.14-6.09 1.24-1.393 2.62-2.383 4.14-2.97 1.52-.593 3.04-.843 4.56-.75 1.52.093 2.713.297 3.58.61.807.367 1.38.86 1.72 1.48.34.62.463 1.21.37 1.77-.093.56-.37.993-.83 1.3-.467.313-1.073.313-1.82 0-1.24-.493-2.357-.57-3.35-.23-.987.34-1.79.9-2.41 1.68-.62.773-1.023 1.687-1.21 2.74-.187 1.053-.11 2.06.23 3.02s.99 1.767 1.95 2.42 2.31.98 4.05.98c1.733 0 3.377-.513 4.93-1.54 1.547-1.02 3.033-2.447 4.46-4.28 1.427-1.827 2.823-3.963 4.19-6.41a130.433 130.433 0 0 0 4-7.86c-2.547 1.487-5.043 2.493-7.49 3.02-2.447.527-4.71.59-6.79.19a12.188 12.188 0 0 1-5.53-2.61c-1.613-1.333-2.823-3.117-3.63-5.35-.867-2.167-1.037-4.6-.51-7.3.527-2.693 1.657-5.39 3.39-8.09 1.74-2.693 4.05-5.25 6.93-7.67 2.887-2.42 6.28-4.467 10.18-6.14 3.787-1.607 7.587-2.643 11.4-3.11 3.813-.467 7.393-.453 10.74.04l.18-.18c.56-.807 1.243-1.32 2.05-1.54.807-.213 1.537-.213 2.19 0 .647.22 1.093.64 1.34 1.26.253.62.13 1.333-.37 2.14 1.86.56 3.533 1.333 5.02 2.32 1.493.993 2.673 2.203 3.54 3.63zm-27.25 17.39a364.17 364.17 0 0 1 4.79-10.32c1.64-3.413 3.39-6.637 5.25-9.67-2.6-.127-5.59.12-8.97.74-3.38.62-6.683 1.737-9.91 3.35a31.01 31.01 0 0 0-8.6 6.37c-2.507 2.633-4.197 5.873-5.07 9.72-.62 2.54-.633 4.553-.04 6.04.587 1.487 1.517 2.493 2.79 3.02 1.267.533 2.8.673 4.6.42 1.8-.247 3.63-.803 5.49-1.67 1.86-.867 3.657-2 5.39-3.4 1.74-1.393 3.167-2.927 4.28-4.6zm15.62-18.6c-2.6 4.4-4.987 9.173-7.16 14.32a674.231 674.231 0 0 1-6.6 15.16c2.107-.433 4.213-1.27 6.32-2.51a31.129 31.129 0 0 0 6.56-5.16c1.953-2.013 3.52-4.107 4.7-6.28 1.173-2.167 1.9-4.303 2.18-6.41.28-2.113-.043-3.943-.97-5.49-.5-.867-1.2-1.597-2.1-2.19a13.736 13.736 0 0 0-2.93-1.44zm18.979 41.2c-1.426 1.367-2.823 2.437-4.19 3.21-1.366.773-2.67 1.363-3.91 1.77-1.24.4-2.386.63-3.44.69-1.053.067-1.95.067-2.69 0 .12.993.537 1.817 1.25 2.47.714.647 1.614 1.063 2.7 1.25 1.087.187 2.327.14 3.72-.14 1.394-.273 2.834-.877 4.32-1.81.747-.433 1.507-.96 2.28-1.58a47.04 47.04 0 0 0 2.28-1.95 68.112 68.112 0 0 0 2.09-2c.654-.653 1.167-1.26 1.54-1.82.367-.553.877-.847 1.53-.88.654-.033 1.244.073 1.77.32a2.38 2.38 0 0 1 1.16 1.17c.247.527.184 1.07-.19 1.63-.366.553-.876 1.187-1.53 1.9-.653.713-1.366 1.473-2.14 2.28a45.969 45.969 0 0 1-2.51 2.42c-.9.807-1.813 1.55-2.74 2.23-1.86 1.427-3.86 2.433-6 3.02-2.14.593-4.186.827-6.14.7-1.953-.127-3.69-.593-5.21-1.4-1.52-.8-2.59-1.913-3.21-3.34-.866-1.927-1.16-3.927-.88-6a16.4 16.4 0 0 1 1.91-5.81 25.62 25.62 0 0 1 4.14-5.44c1.58-1.587 3.22-2.873 4.92-3.86 1.707-.993 3.444-1.613 5.21-1.86 1.767-.253 3.397-.1 4.89.46 1.36.56 2.227 1.397 2.6 2.51.374 1.12.42 2.3.14 3.54a11.564 11.564 0 0 1-1.49 3.58c-.713 1.147-1.44 2.06-2.18 2.74zm-13.12.93l-.09.09c1.367.067 2.807-.163 4.32-.69 1.52-.533 2.964-1.45 4.33-2.75 1.487-1.427 2.354-2.76 2.6-4 .247-1.24-.25-1.86-1.49-1.86-.62 0-1.333.233-2.14.7-.8.467-1.636 1.117-2.51 1.95a28.336 28.336 0 0 0-2.6 2.93 31.935 31.935 0 0 0-2.42 3.63zm48.637-.84c.373-.553.887-.847 1.54-.88a3.543 3.543 0 0 1 1.81.37c.56.28.963.667 1.21 1.16.247.5.153 1.03-.28 1.59-.307.367-.723.907-1.25 1.62a42.65 42.65 0 0 1-1.82 2.28c-.68.807-1.44 1.643-2.28 2.51a37.315 37.315 0 0 1-2.55 2.42c-1.673 1.487-3.163 2.51-4.47 3.07-1.3.56-2.447.807-3.44.74-.993-.06-1.83-.37-2.51-.93a8.817 8.817 0 0 1-1.77-1.95c-.987.62-2.053 1.27-3.2 1.95-1.153.687-2.877 1.03-5.17 1.03-1.607 0-3-.373-4.18-1.12-1.18-.747-2.05-1.8-2.61-3.16-.553-1.367-.737-2.993-.55-4.88.187-1.893.9-3.957 2.14-6.19 1.173-2.233 2.583-4.17 4.23-5.81 1.64-1.647 3.297-2.997 4.97-4.05 1.673-1.053 3.303-1.827 4.89-2.32 1.58-.5 2.957-.75 4.13-.75.807 0 1.507.11 2.1.33.587.22 1.127.483 1.62.79.5.313.967.687 1.4 1.12l.79-1.54c.527-1.02 1.193-2.29 2-3.81.807-1.52 1.69-3.193 2.65-5.02.96-1.833 1.86-3.54 2.7-5.12.833-1.58 1.56-2.943 2.18-4.09.62-1.147.993-1.843 1.12-2.09.373-.56.947-.903 1.72-1.03a5.425 5.425 0 0 1 2.23.1c.713.187 1.27.527 1.67 1.02.407.493.423 1.083.05 1.77-.307.62-.973 1.89-2 3.81-1.02 1.92-2.197 4.153-3.53 6.7-1.333 2.54-2.743 5.22-4.23 8.04a828.602 828.602 0 0 1-4.24 7.91 6793.73 6793.73 0 0 0-3.44 6.32 262.144 262.144 0 0 1-1.81 3.3c-.433.68-.587 1.16-.46 1.44.12.28.383.403.79.37.4-.027.88-.197 1.44-.51.553-.307 1.11-.74 1.67-1.3a151.567 151.567 0 0 0 2.6-2.65c.62-.653 1.333-1.507 2.14-2.56zm-13.76 2.61a20.312 20.312 0 0 0 2.28-3.58c.587-1.213 1.02-2.33 1.3-3.35.28-1.027.39-1.927.33-2.7-.067-.773-.347-1.347-.84-1.72s-1.13-.48-1.91-.32c-.773.153-1.61.507-2.51 1.06-.9.56-1.83 1.307-2.79 2.24a31.81 31.81 0 0 0-2.84 3.16c-.927 1.24-1.7 2.45-2.32 3.63-.62 1.173-1.07 2.273-1.35 3.3-.28 1.02-.373 1.917-.28 2.69.093.78.39 1.357.89 1.73.493.367 1.127.49 1.9.37.773-.127 1.61-.47 2.51-1.03.9-.553 1.83-1.297 2.79-2.23.96-.927 1.907-2.01 2.84-3.25zm43.243-2.61c.434-.553.977-.847 1.63-.88a3.54 3.54 0 0 1 1.81.37c.56.28.964.667 1.21 1.16.247.5.154 1.03-.28 1.59-.306.367-.723.907-1.25 1.62a33.395 33.395 0 0 1-1.86 2.28c-.713.807-1.473 1.643-2.28 2.51a31.5 31.5 0 0 1-2.51 2.42c-1.673 1.487-3.163 2.51-4.47 3.07-1.3.56-2.446.807-3.44.74-.993-.06-1.83-.37-2.51-.93a8.817 8.817 0 0 1-1.77-1.95c-.986.62-2.053 1.27-3.2 1.95-1.153.687-2.876 1.03-5.17 1.03-1.606 0-3-.373-4.18-1.12-1.18-.747-2.05-1.8-2.61-3.16-.553-1.367-.736-2.993-.55-4.88.187-1.893.9-3.957 2.14-6.19 1.174-2.233 2.584-4.17 4.23-5.81 1.64-1.647 3.297-2.997 4.97-4.05 1.674-1.053 3.304-1.827 4.89-2.32 1.58-.5 2.957-.75 4.13-.75.807 0 1.507.11 2.1.33.587.22 1.127.483 1.62.79.5.313.967.687 1.4 1.12.374-.747.994-1.29 1.86-1.63.867-.34 1.687-.463 2.46-.37.78.093 1.37.387 1.77.88.407.493.36 1.177-.14 2.05a438.834 438.834 0 0 1-4.18 8.13c-.806 1.52-1.566 2.947-2.28 4.28-.713 1.333-1.286 2.31-1.72 2.93-.373.68-.513 1.16-.42 1.44.094.28.357.403.79.37.434-.027.93-.197 1.49-.51.554-.307 1.11-.74 1.67-1.3a142.829 142.829 0 0 1 2.56-2.65c.647-.653 1.344-1.507 2.09-2.56zm-13.67 2.61a20.312 20.312 0 0 0 2.28-3.58c.587-1.213 1.02-2.33 1.3-3.35.28-1.027.39-1.927.33-2.7-.066-.773-.346-1.347-.84-1.72-.493-.373-1.13-.48-1.91-.32-.773.153-1.61.507-2.51 1.06-.9.56-1.83 1.307-2.79 2.24-.96.927-1.906 1.98-2.84 3.16-.926 1.24-1.7 2.45-2.32 3.63-.62 1.173-1.07 2.273-1.35 3.3-.28 1.02-.373 1.917-.28 2.69.094.78.39 1.357.89 1.73.434.367 1.037.49 1.81.37.774-.127 1.627-.47 2.56-1.03.927-.553 1.87-1.297 2.83-2.23.96-.927 1.907-2.01 2.84-3.25zM169 53.726a323.644 323.644 0 0 1-5.16 4.65 300.88 300.88 0 0 1-5.16 4.46 357.823 357.823 0 0 1-5.68 4.66 9.955 9.955 0 0 0-.79 3.62c-.027 1.24.223 2.247.75 3.02.527.78 1.333 1.183 2.42 1.21 1.08.033 2.457-.57 4.13-1.81a31.06 31.06 0 0 0 3.96-3.67c1.267-1.4 2.337-2.627 3.21-3.68.367-.553.877-.847 1.53-.88.653-.033 1.243.09 1.77.37.527.28.913.667 1.16 1.16.247.5.153 1.03-.28 1.59-.307.367-.71.907-1.21 1.62a30.47 30.47 0 0 1-1.76 2.28 56.548 56.548 0 0 1-2.28 2.51 39.13 39.13 0 0 1-2.56 2.42c-1.673 1.487-3.333 2.527-4.98 3.12-1.64.587-3.157.85-4.55.79-1.4-.067-2.657-.377-3.77-.93-1.113-.56-1.98-1.243-2.6-2.05a7.003 7.003 0 0 1-1.45-3.16 12.03 12.03 0 0 1-.09-3.63c.153-1.24.417-2.45.79-3.63a27.586 27.586 0 0 1 1.3-3.34 76.663 76.663 0 0 1 5.77-10.56c2.173-3.32 4.42-6.327 6.74-9.02 2.327-2.7 4.653-5.04 6.98-7.02 2.32-1.987 4.473-3.443 6.46-4.37 1.487-.747 2.603-1.043 3.35-.89.747.16 1.367.827 1.86 2 .433.993.603 2.127.51 3.4-.093 1.267-.51 2.693-1.25 4.28-.747 1.58-1.863 3.33-3.35 5.25-1.493 1.92-3.417 3.997-5.77 6.23zm4.46-14.79c-2.6 1.987-4.83 4.033-6.69 6.14-1.86 2.107-3.41 4.03-4.65 5.77-1.487 2.047-2.727 4.03-3.72 5.95 3.04-2.787 5.707-5.39 8-7.81a50.91 50.91 0 0 0 2.83-3.07c.9-1.053 1.69-2.03 2.37-2.93.687-.9 1.2-1.707 1.54-2.42.34-.713.447-1.257.32-1.63zm64.175 24.84c-1.92.06-3.61.103-5.07.13-1.46.033-2.87.05-4.23.05a73.02 73.02 0 0 1-4.28 6.88c-1.486 2.113-3.083 3.927-4.79 5.44-1.706 1.52-3.503 2.7-5.39 3.54-1.893.833-3.956 1.25-6.19 1.25-1.86 0-3.593-.293-5.2-.88-1.613-.587-2.993-1.393-4.14-2.42a10.07 10.07 0 0 1-2.61-3.63c-.586-1.393-.82-2.897-.7-4.51.254-2.667.984-4.697 2.19-6.09 1.207-1.393 2.57-2.383 4.09-2.97 1.52-.593 3.04-.843 4.56-.75 1.52.093 2.714.297 3.58.61.807.367 1.38.86 1.72 1.48.34.62.464 1.21.37 1.77-.093.56-.356.993-.79 1.3-.433.313-1.023.313-1.77 0-1.24-.493-2.37-.57-3.39-.23-1.02.34-1.84.9-2.46 1.68-.62.773-1.023 1.687-1.21 2.74-.186 1.053-.11 2.06.23 3.02s.99 1.767 1.95 2.42 2.31.98 4.05.98c2.54 0 4.88-1.04 7.02-3.12 2.14-2.08 4.2-4.853 6.18-8.32-1.24 0-1.996-.28-2.27-.84-.28-.56-.266-1.163.04-1.81.314-.653.874-1.26 1.68-1.82a5.267 5.267 0 0 1 2.69-.93h.75c.247-.553.494-1.093.74-1.62.247-.527.527-1.07.84-1.63-2.546 1.487-5.043 2.493-7.49 3.02-2.446.527-4.723.59-6.83.19-2.113-.407-3.96-1.277-5.54-2.61s-2.803-3.117-3.67-5.35c-.866-2.167-1.036-4.6-.51-7.3.527-2.693 1.674-5.39 3.44-8.09 1.767-2.693 4.09-5.25 6.97-7.67 2.887-2.42 6.284-4.467 10.19-6.14 3.78-1.607 7.56-2.643 11.34-3.11 3.787-.467 7.354-.453 10.7.04l.18-.18c.56-.807 1.244-1.32 2.05-1.54.807-.213 1.537-.213 2.19 0 .647.22 1.11.623 1.39 1.21.28.593.204 1.293-.23 2.1 4.774 1.42 8.834 1.977 12.18 1.67 3.347-.313 6.2-1.46 8.56-3.44.494-.373 1.174-.543 2.04-.51.874.027 1.664.197 2.37.51.714.307 1.197.757 1.45 1.35.247.587.03 1.22-.65 1.9-1.24 1.24-2.836 2.327-4.79 3.26-1.953.927-4.186 1.577-6.7 1.95-2.513.373-5.256.437-8.23.19-2.973-.253-6.103-.937-9.39-2.05a93.249 93.249 0 0 0-4.24 7.91 262.05 262.05 0 0 0-3.9 8.55 5509.2 5509.2 0 0 0-3.81 8.74 276.06 276.06 0 0 1-3.86 8.47c1.734 0 3.407-.017 5.02-.05 1.614-.033 2.854-.05 3.72-.05.927 0 1.5.28 1.72.84.214.56.167 1.163-.14 1.81-.313.653-.81 1.26-1.49 1.82-.68.56-1.423.84-2.23.84zm-6.51-20a319.614 319.614 0 0 1 4.83-10.51 132.938 132.938 0 0 1 5.21-9.76c-2.6-.127-5.59.12-8.97.74-3.38.62-6.666 1.737-9.86 3.35a31.243 31.243 0 0 0-8.56 6.37c-2.506 2.633-4.193 5.873-5.06 9.72-.56 2.54-.576 4.54-.05 6 .527 1.453 1.427 2.46 2.7 3.02 1.267.56 2.8.73 4.6.51 1.8-.22 3.63-.763 5.49-1.63a27.42 27.42 0 0 0 5.34-3.3c1.707-1.333 3.15-2.837 4.33-4.51zm38.312 22.41c.373-.553.886-.847 1.54-.88.646-.033 1.25.09 1.81.37s.963.667 1.21 1.16c.246.5.153 1.03-.28 1.59a35.93 35.93 0 0 0-1.25 1.62 51.07 51.07 0 0 1-1.82 2.28 69.1 69.1 0 0 1-2.23 2.51 31.843 31.843 0 0 1-2.51 2.42c-1.734 1.487-3.254 2.51-4.56 3.07-1.3.56-2.43.807-3.39.74-.96-.06-1.784-.37-2.47-.93a8.607 8.607 0 0 1-1.76-1.95c-.5.307-1.014.633-1.54.98-.527.34-1.1.663-1.72.97-.62.313-1.347.563-2.18.75-.84.187-1.817.28-2.93.28-3.167 0-5.014-1.287-5.54-3.86-.527-2.573.483-6 3.03-10.28a91.237 91.237 0 0 0 1.76-3.12c.62-1.147 1.256-2.277 1.91-3.39a278.908 278.908 0 0 1 1.86-3.16 86.283 86.283 0 0 1 1.53-2.51c.56-.867 1.26-1.427 2.1-1.68.833-.247 1.623-.247 2.37 0 .74.253 1.28.673 1.62 1.26.346.587.3 1.283-.14 2.09-.68 1.18-1.454 2.56-2.32 4.14l-2.32 4.23c-.687 1.24-1.354 2.42-2 3.54a29.43 29.43 0 0 0-1.59 3.06c-.4.933-.677 1.727-.83 2.38-.16.647-.084 1.093.23 1.34.68.56 1.843.237 3.49-.97 1.64-1.213 3.39-3.027 5.25-5.44.68-.867 1.456-2.077 2.33-3.63a454.654 454.654 0 0 0 2.51-4.56c.926-1.733 1.886-3.56 2.88-5.48.373-.747.976-1.29 1.81-1.63.84-.34 1.646-.463 2.42-.37.773.093 1.38.387 1.82.88.433.493.4 1.177-.1 2.05-.494.987-1.127 2.21-1.9 3.67-.78 1.453-1.57 2.94-2.37 4.46-.807 1.52-1.567 2.947-2.28 4.28-.714 1.333-1.257 2.31-1.63 2.93-.374.68-.514 1.16-.42 1.44.093.28.34.403.74.37.406-.027.903-.197 1.49-.51.593-.307 1.166-.74 1.72-1.3 1.053-1.113 1.89-1.997 2.51-2.65.62-.653 1.333-1.507 2.14-2.56zm.002 0c1.24-1.427 2.574-3.207 4-5.34a908.05 908.05 0 0 0 3.91-5.91c-.746-.927-1.323-2.057-1.73-3.39a15.36 15.36 0 0 1-.65-4.05c-.026-1.367.144-2.653.51-3.86.374-1.207 1.027-2.183 1.96-2.93 1.36-1.053 2.66-1.597 3.9-1.63 1.24-.027 2.297.3 3.17.98.867.68 1.5 1.627 1.9 2.84.407 1.207.484 2.493.23 3.86-.12.8-.43 1.73-.93 2.79a61.086 61.086 0 0 1-1.76 3.44c.74.187 1.577.187 2.51 0 .994-.187 1.83-.14 2.51.14.68.28 1.207.667 1.58 1.16.374.493.56 1.037.56 1.63 0 .587-.186 1.067-.56 1.44-.246.247-.743.803-1.49 1.67-.74.867-1.59 1.907-2.55 3.12a97.808 97.808 0 0 0-2.93 3.86 43.299 43.299 0 0 0-2.56 3.9c-.713 1.24-1.24 2.34-1.58 3.3-.34.967-.293 1.603.14 1.91.68.62 1.64.683 2.88.19 1.24-.5 2.544-1.26 3.91-2.28a42.75 42.75 0 0 0 4-3.44c1.3-1.273 2.354-2.407 3.16-3.4a2.233 2.233 0 0 1 1.62-.79c.654-.027 1.244.083 1.77.33.527.247.914.617 1.16 1.11.254.5.16 1.03-.28 1.59-.926 1.3-2.243 2.833-3.95 4.6a34.405 34.405 0 0 1-5.67 4.74c-2.08 1.393-4.203 2.4-6.37 3.02-2.173.62-4.19.437-6.05-.55-1.606-.807-2.503-2.08-2.69-3.82-.186-1.733.124-3.607.93-5.62.807-2.02 1.954-4.05 3.44-6.09 1.487-2.047 3.097-3.783 4.83-5.21.5-.433.764-.73.79-.89.034-.153-.6-.477-1.9-.97a176.96 176.96 0 0 1-4.51 6.69 1654.07 1654.07 0 0 1-2.93 4.1c-.5.613-1.073.937-1.72.97-.653.033-1.226-.107-1.72-.42a2.572 2.572 0 0 1-1.07-1.25c-.22-.527-.143-1.04.23-1.54zm11.9-22.41c-.493 0-.88.2-1.16.6-.28.407-.466.937-.56 1.59a6.759 6.759 0 0 0 .05 2.09c.127.74.374 1.453.74 2.14.374-.747.717-1.493 1.03-2.24.307-.74.524-1.42.65-2.04.12-.62.12-1.133 0-1.54-.126-.4-.376-.6-.75-.6zm27.717 22.41c.373-.553.887-.847 1.54-.88a3.57 3.57 0 0 1 1.81.37c.56.28.963.667 1.21 1.16.247.5.153 1.03-.28 1.59-.62.8-1.443 1.82-2.47 3.06-1.02 1.24-2.367 2.667-4.04 4.28a42.59 42.59 0 0 1-2.88 2.51 15.29 15.29 0 0 1-2.61 1.68c-.867.433-1.763.743-2.69.93-.933.187-1.957.28-3.07.28-3.167 0-5.013-1.287-5.54-3.86-.527-2.573.483-6 3.03-10.28a91.237 91.237 0 0 0 1.76-3.12 111.07 111.07 0 0 1 1.91-3.39 312.44 312.44 0 0 1 1.86-3.16 90.968 90.968 0 0 1 1.53-2.51c.56-.867 1.273-1.427 2.14-1.68.867-.247 1.657-.247 2.37 0 .713.253 1.257.673 1.63 1.26s.31 1.283-.19 2.09c-.68 1.18-1.453 2.56-2.32 4.14l-2.32 4.23c-.687 1.24-1.353 2.42-2 3.54a29.825 29.825 0 0 0-1.59 3.06c-.4.933-.677 1.727-.83 2.38-.16.647-.083 1.093.23 1.34.307.313.757.393 1.35.24.587-.16 1.22-.457 1.9-.89.687-.433 1.37-.93 2.05-1.49.68-.553 1.3-1.11 1.86-1.67 1.053-1.113 1.89-1.997 2.51-2.65.62-.653 1.333-1.507 2.14-2.56zm3.81-20.74c-.307.5-.707.997-1.2 1.49-.5.5-.903.873-1.21 1.12a8.044 8.044 0 0 1-2.52 1.02c-.867.187-1.593.217-2.18.09-.587-.12-.99-.43-1.21-.93-.213-.493-.043-1.173.51-2.04.187-.373.467-.853.84-1.44.373-.593.713-1.137 1.02-1.63.5-.747 1.183-1.197 2.05-1.35.867-.153 1.673-.107 2.42.14.74.247 1.297.68 1.67 1.3s.31 1.363-.19 2.23zm24.831 20.74c.373-.553.886-.847 1.54-.88.653-.033 1.243.073 1.77.32.526.253.896.643 1.11 1.17.22.527.143 1.07-.23 1.63-.494.74-1.224 1.577-2.19 2.51-.96.927-2.09 1.747-3.39 2.46-1.3.713-2.68 1.21-4.14 1.49a7.29 7.29 0 0 1-4.23-.42c-1.8 1.987-3.8 3.567-6 4.74-2.2 1.18-4.387 1.77-6.56 1.77-1.607 0-3-.373-4.18-1.12a6.95 6.95 0 0 1-2.65-2.97c-.594-1.24-.89-2.713-.89-4.42 0-1.707.343-3.52 1.03-5.44.74-1.92 1.73-3.733 2.97-5.44a23.642 23.642 0 0 1 4.19-4.46c1.546-1.273 3.173-2.283 4.88-3.03 1.706-.74 3.396-1.11 5.07-1.11 1.673 0 3.1.37 4.28 1.11a6.963 6.963 0 0 1 2.65 3.03c.586 1.267.88 2.753.88 4.46 0 1.707-.34 3.52-1.02 5.44-.187.493-.374.96-.56 1.4-.187.433-.404.867-.65 1.3.926.06 1.996-.25 3.21-.93a11.12 11.12 0 0 0 3.11-2.61zm-10.97.47c.993-2.173 1.24-4.02.74-5.54-.494-1.513-1.547-2.27-3.16-2.27-.807 0-1.66.2-2.56.6-.894.4-1.76.957-2.6 1.67-.84.713-1.63 1.537-2.37 2.47a11.43 11.43 0 0 0-1.77 3.07c-.927 2.167-1.144 4.01-.65 5.53.493 1.52 1.546 2.28 3.16 2.28.806 0 1.66-.2 2.56-.6.9-.407 1.766-.967 2.6-1.68.84-.713 1.6-1.55 2.28-2.51a19.245 19.245 0 0 0 1.77-3.02zm37.103-.47c.374-.553.887-.847 1.54-.88a3.57 3.57 0 0 1 1.81.37c.56.28.964.667 1.21 1.16.247.5.154 1.03-.28 1.59-.306.367-.723.907-1.25 1.62a50.36 50.36 0 0 1-1.82 2.28 68.162 68.162 0 0 1-2.23 2.51 31.5 31.5 0 0 1-2.51 2.42c-1.733 1.487-3.253 2.51-4.56 3.07-1.3.56-2.43.807-3.39.74-.96-.06-1.783-.37-2.47-.93a8.63 8.63 0 0 1-1.76-1.95c-.5.307-1.013.633-1.54.98-.526.34-1.1.663-1.72.97-.62.313-1.346.563-2.18.75-.84.187-1.816.28-2.93.28-3.166 0-5.013-1.287-5.54-3.86-.526-2.573.484-6 3.03-10.28a89.57 89.57 0 0 0 1.76-3.12 111.07 111.07 0 0 1 1.91-3.39 312.44 312.44 0 0 1 1.86-3.16 90.968 90.968 0 0 1 1.53-2.51c.56-.867 1.26-1.427 2.1-1.68.834-.247 1.624-.247 2.37 0 .74.253 1.28.673 1.62 1.26.347.587.3 1.283-.14 2.09-.68 1.18-1.453 2.56-2.32 4.14l-2.32 4.23a219.68 219.68 0 0 1-2 3.54 29.825 29.825 0 0 0-1.59 3.06c-.4.933-.676 1.727-.83 2.38-.16.647-.083 1.093.23 1.34.68.56 1.844.237 3.49-.97 1.64-1.213 3.39-3.027 5.25-5.44.68-.867 1.457-2.077 2.33-3.63a417.796 417.796 0 0 0 2.51-4.56c.927-1.733 1.887-3.56 2.88-5.48.374-.747.977-1.29 1.81-1.63.84-.34 1.647-.463 2.42-.37.774.093 1.38.387 1.82.88.434.493.4 1.177-.1 2.05-.493.987-1.126 2.21-1.9 3.67-.78 1.453-1.57 2.94-2.37 4.46-.806 1.52-1.566 2.947-2.28 4.28-.713 1.333-1.256 2.31-1.63 2.93-.373.68-.513 1.16-.42 1.44.094.28.34.403.74.37.407-.027.904-.197 1.49-.51.594-.307 1.167-.74 1.72-1.3 1.054-1.113 1.89-1.997 2.51-2.65.62-.653 1.334-1.507 2.14-2.56zm18.693-13.48a27.059 27.059 0 0 1-2.69 3.3c-.933.96-1.463 2.183-1.59 3.67-.12.747-.01 1.6.33 2.56s.68 2.013 1.02 3.16c.34 1.147.557 2.387.65 3.72.093 1.333-.137 2.777-.69 4.33a9.798 9.798 0 0 0 1.76-1.21c1.427-1.053 2.513-2.06 3.26-3.02.747-.967 1.52-1.977 2.32-3.03.373-.553.887-.847 1.54-.88a3.366 3.366 0 0 1 1.77.37c.527.28.913.667 1.16 1.16.247.5.183 1.03-.19 1.59-.62.8-1.44 1.837-2.46 3.11-1.027 1.273-2.407 2.683-4.14 4.23-2.107 1.86-4.34 3.177-6.7 3.95-2.353.78-4.49 1.2-6.41 1.26-1.06.187-2.117.25-3.17.19a9.267 9.267 0 0 1-2.93-.65 8.77 8.77 0 0 1-2.37-1.45 6.131 6.131 0 0 1-1.58-2.09c-.927-2.107-1.113-3.983-.56-5.63.56-1.64 1.553-3.36 2.98-5.16.307-.373.803-.993 1.49-1.86.68-.867 1.47-1.857 2.37-2.97.9-1.12 1.847-2.283 2.84-3.49a504.55 504.55 0 0 0 2.79-3.44c.867-1.087 1.623-2.033 2.27-2.84.653-.807 1.137-1.363 1.45-1.67.493-.5 1.143-.763 1.95-.79a4.788 4.788 0 0 1 2.23.42c.68.307 1.177.753 1.49 1.34.307.593.243 1.2-.19 1.82zm-11.44 23.43c.747-.493 1.29-1.22 1.63-2.18.34-.96.51-2 .51-3.12a16.07 16.07 0 0 0-.37-3.39c-.247-1.147-.557-2.153-.93-3.02-1.733 2.047-3.037 3.58-3.91 4.6-.867 1.02-1.453 1.81-1.76 2.37-.373.56-.467 1.21-.28 1.95.187.747.543 1.4 1.07 1.96.527.553 1.147.94 1.86 1.16.713.22 1.44.11 2.18-.33zm37.854-22.41a332.614 332.614 0 0 1-10.32 9.11 357.823 357.823 0 0 1-5.68 4.66 9.935 9.935 0 0 0-.79 3.62c-.027 1.24.223 2.247.75 3.02.526.78 1.333 1.183 2.42 1.21 1.08.033 2.456-.57 4.13-1.81a31.195 31.195 0 0 0 3.96-3.67c1.266-1.4 2.336-2.627 3.21-3.68.366-.553.876-.847 1.53-.88.653-.033 1.243.09 1.77.37.526.28.913.667 1.16 1.16.246.5.153 1.03-.28 1.59-.307.367-.71.907-1.21 1.62a30.738 30.738 0 0 1-1.76 2.28 56.548 56.548 0 0 1-2.28 2.51 39.385 39.385 0 0 1-2.56 2.42c-1.674 1.487-3.334 2.527-4.98 3.12-1.64.587-3.157.85-4.55.79-1.4-.067-2.657-.377-3.77-.93-1.114-.56-1.98-1.243-2.6-2.05a7.003 7.003 0 0 1-1.45-3.16 11.966 11.966 0 0 1-.09-3.63c.153-1.24.416-2.45.79-3.63a27.421 27.421 0 0 1 1.3-3.34 76.556 76.556 0 0 1 5.77-10.56c2.173-3.32 4.42-6.327 6.74-9.02 2.326-2.7 4.653-5.04 6.98-7.02 2.32-1.987 4.473-3.443 6.46-4.37 1.486-.747 2.603-1.043 3.35-.89.746.16 1.366.827 1.86 2 .433.993.603 2.127.51 3.4-.094 1.267-.51 2.693-1.25 4.28-.747 1.58-1.864 3.33-3.35 5.25-1.494 1.92-3.417 3.997-5.77 6.23zm4.46-14.79c-2.6 1.987-4.83 4.033-6.69 6.14-1.86 2.107-3.41 4.03-4.65 5.77-1.487 2.047-2.727 4.03-3.72 5.95 3.04-2.787 5.706-5.39 8-7.81a51.24 51.24 0 0 0 2.83-3.07c.9-1.053 1.69-2.03 2.37-2.93.686-.9 1.2-1.707 1.54-2.42.34-.713.446-1.257.32-1.63zm20.095 27.25c.367-.553.877-.847 1.53-.88.654-.033 1.26.09 1.82.37.554.28.954.667 1.2 1.16.254.5.164 1.03-.27 1.59-.313.367-.733.907-1.26 1.62-.526.713-1.13 1.49-1.81 2.33a44.063 44.063 0 0 1-2.24 2.51 38.065 38.065 0 0 1-2.51 2.37c-1.426 1.113-3.116 2.153-5.07 3.12a89.205 89.205 0 0 1-5.9 2.65l-3.16 5.86c-1.553 2.913-3.476 4.973-5.77 6.18-2.293 1.207-4.433 1.78-6.42 1.72-1.98-.06-3.576-.663-4.79-1.81-1.206-1.147-1.53-2.65-.97-4.51.494-1.613 1.254-2.887 2.28-3.82 1.02-.927 2.244-1.717 3.67-2.37 1.427-.647 3.04-1.237 4.84-1.77 1.794-.527 3.747-1.223 5.86-2.09l.55-1.02c-.74.493-1.606.91-2.6 1.25-.993.347-2.263.52-3.81.52-3.166 0-5.013-1.287-5.54-3.86-.526-2.573.484-6 3.03-10.28.494-.933 1.067-1.973 1.72-3.12a726.39 726.39 0 0 0 1.9-3.39 121.4 121.4 0 0 1 1.82-3.16 90.968 90.968 0 0 1 1.53-2.51c.56-.867 1.274-1.427 2.14-1.68.867-.247 1.674-.247 2.42 0 .74.253 1.28.673 1.62 1.26.347.587.3 1.283-.14 2.09-.68 1.18-1.453 2.56-2.32 4.14l-2.32 4.23a219.68 219.68 0 0 1-2 3.54 29.825 29.825 0 0 0-1.59 3.06c-.4.933-.676 1.727-.83 2.38-.16.647-.083 1.093.23 1.34.307.253.91.253 1.81 0 .9-.247 1.877-.68 2.93-1.3a22.647 22.647 0 0 0 3.07-2.18c.994-.84 1.737-1.723 2.23-2.65.5-.933 1.06-2.037 1.68-3.31.62-1.267 1.254-2.553 1.9-3.86.654-1.3 1.29-2.553 1.91-3.76.62-1.207 1.147-2.213 1.58-3.02.434-.807 1.087-1.38 1.96-1.72.867-.347 1.687-.473 2.46-.38.774.093 1.364.403 1.77.93.4.527.354 1.227-.14 2.1-.5.987-1.153 2.21-1.96 3.67a346.001 346.001 0 0 0-2.41 4.42 230.551 230.551 0 0 0-2.24 4.23 119.56 119.56 0 0 1-1.58 3.02l-2.51 4.74a51.327 51.327 0 0 0 6.05-4.74c1.114-1.053 1.964-1.92 2.55-2.6a57.71 57.71 0 0 0 2.1-2.61zm-23.44 21.67l1.12-1.76c-2.173.867-4.003 1.657-5.49 2.37-1.486.713-2.323 1.44-2.51 2.18-.126.5.027.857.46 1.07.434.22.994.25 1.68.09.68-.153 1.454-.54 2.32-1.16.874-.62 1.68-1.55 2.42-2.79z"/><path fill="#d9d9d9" d="M73.436 23.279c1.24 2.167 1.783 4.57 1.63 7.21-.16 2.633-.92 5.3-2.28 8-1.367 2.693-3.273 5.31-5.72 7.85-2.453 2.547-5.353 4.78-8.7 6.7a36.615 36.615 0 0 1-6.69 3.16 40.932 40.932 0 0 1-6.79 1.77c-1.427 2.913-2.93 5.593-4.51 8.04-1.587 2.453-3.293 4.593-5.12 6.42s-3.78 3.253-5.86 4.28c-2.073 1.02-4.32 1.53-6.74 1.53-1.86 0-3.58-.293-5.16-.88s-2.943-1.393-4.09-2.42a10.046 10.046 0 0 1-2.61-3.63c-.587-1.393-.82-2.897-.7-4.51.187-2.667.9-4.697 2.14-6.09 1.24-1.393 2.62-2.383 4.14-2.97 1.52-.593 3.04-.843 4.56-.75 1.52.093 2.713.297 3.58.61.807.367 1.38.86 1.72 1.48.34.62.463 1.21.37 1.77-.093.56-.37.993-.83 1.3-.467.313-1.073.313-1.82 0-1.24-.493-2.357-.57-3.35-.23-.987.34-1.79.9-2.41 1.68-.62.773-1.023 1.687-1.21 2.74-.187 1.053-.11 2.06.23 3.02s.99 1.767 1.95 2.42 2.31.98 4.05.98c1.733 0 3.377-.513 4.93-1.54 1.547-1.02 3.033-2.447 4.46-4.28 1.427-1.827 2.823-3.963 4.19-6.41a130.433 130.433 0 0 0 4-7.86c-2.547 1.487-5.043 2.493-7.49 3.02-2.447.527-4.71.59-6.79.19a12.188 12.188 0 0 1-5.53-2.61c-1.613-1.333-2.823-3.117-3.63-5.35-.867-2.167-1.037-4.6-.51-7.3.527-2.693 1.657-5.39 3.39-8.09 1.74-2.693 4.05-5.25 6.93-7.67 2.887-2.42 6.28-4.467 10.18-6.14 3.787-1.607 7.587-2.643 11.4-3.11 3.813-.467 7.393-.453 10.74.04l.18-.18c.56-.807 1.243-1.32 2.05-1.54.807-.213 1.537-.213 2.19 0 .647.22 1.093.64 1.34 1.26.253.62.13 1.333-.37 2.14 1.86.56 3.533 1.333 5.02 2.32 1.493.993 2.673 2.203 3.54 3.63zm-27.25 17.39a364.17 364.17 0 0 1 4.79-10.32c1.64-3.413 3.39-6.637 5.25-9.67-2.6-.127-5.59.12-8.97.74-3.38.62-6.683 1.737-9.91 3.35a31.01 31.01 0 0 0-8.6 6.37c-2.507 2.633-4.197 5.873-5.07 9.72-.62 2.54-.633 4.553-.04 6.04.587 1.487 1.517 2.493 2.79 3.02 1.267.533 2.8.673 4.6.42 1.8-.247 3.63-.803 5.49-1.67 1.86-.867 3.657-2 5.39-3.4 1.74-1.393 3.167-2.927 4.28-4.6zm15.62-18.6c-2.6 4.4-4.987 9.173-7.16 14.32a674.231 674.231 0 0 1-6.6 15.16c2.107-.433 4.213-1.27 6.32-2.51a31.129 31.129 0 0 0 6.56-5.16c1.953-2.013 3.52-4.107 4.7-6.28 1.173-2.167 1.9-4.303 2.18-6.41.28-2.113-.043-3.943-.97-5.49-.5-.867-1.2-1.597-2.1-2.19a13.736 13.736 0 0 0-2.93-1.44zm18.979 41.2c-1.426 1.367-2.823 2.437-4.19 3.21-1.366.773-2.67 1.363-3.91 1.77-1.24.4-2.386.63-3.44.69-1.053.067-1.95.067-2.69 0 .12.993.537 1.817 1.25 2.47.714.647 1.614 1.063 2.7 1.25 1.087.187 2.327.14 3.72-.14 1.394-.273 2.834-.877 4.32-1.81.747-.433 1.507-.96 2.28-1.58a47.04 47.04 0 0 0 2.28-1.95 68.112 68.112 0 0 0 2.09-2c.654-.653 1.167-1.26 1.54-1.82.367-.553.877-.847 1.53-.88.654-.033 1.244.073 1.77.32a2.38 2.38 0 0 1 1.16 1.17c.247.527.184 1.07-.19 1.63-.366.553-.876 1.187-1.53 1.9-.653.713-1.366 1.473-2.14 2.28a45.969 45.969 0 0 1-2.51 2.42c-.9.807-1.813 1.55-2.74 2.23-1.86 1.427-3.86 2.433-6 3.02-2.14.593-4.186.827-6.14.7-1.953-.127-3.69-.593-5.21-1.4-1.52-.8-2.59-1.913-3.21-3.34-.866-1.927-1.16-3.927-.88-6a16.4 16.4 0 0 1 1.91-5.81 25.62 25.62 0 0 1 4.14-5.44c1.58-1.587 3.22-2.873 4.92-3.86 1.707-.993 3.444-1.613 5.21-1.86 1.767-.253 3.397-.1 4.89.46 1.36.56 2.227 1.397 2.6 2.51.374 1.12.42 2.3.14 3.54a11.564 11.564 0 0 1-1.49 3.58c-.713 1.147-1.44 2.06-2.18 2.74zm-13.12.93l-.09.09c1.367.067 2.807-.163 4.32-.69 1.52-.533 2.964-1.45 4.33-2.75 1.487-1.427 2.354-2.76 2.6-4 .247-1.24-.25-1.86-1.49-1.86-.62 0-1.333.233-2.14.7-.8.467-1.636 1.117-2.51 1.95a28.336 28.336 0 0 0-2.6 2.93 31.935 31.935 0 0 0-2.42 3.63zm48.637-.84c.373-.553.887-.847 1.54-.88a3.543 3.543 0 0 1 1.81.37c.56.28.963.667 1.21 1.16.247.5.153 1.03-.28 1.59-.307.367-.723.907-1.25 1.62a42.65 42.65 0 0 1-1.82 2.28c-.68.807-1.44 1.643-2.28 2.51a37.315 37.315 0 0 1-2.55 2.42c-1.673 1.487-3.163 2.51-4.47 3.07-1.3.56-2.447.807-3.44.74-.993-.06-1.83-.37-2.51-.93a8.817 8.817 0 0 1-1.77-1.95c-.987.62-2.053 1.27-3.2 1.95-1.153.687-2.877 1.03-5.17 1.03-1.607 0-3-.373-4.18-1.12-1.18-.747-2.05-1.8-2.61-3.16-.553-1.367-.737-2.993-.55-4.88.187-1.893.9-3.957 2.14-6.19 1.173-2.233 2.583-4.17 4.23-5.81 1.64-1.647 3.297-2.997 4.97-4.05 1.673-1.053 3.303-1.827 4.89-2.32 1.58-.5 2.957-.75 4.13-.75.807 0 1.507.11 2.1.33.587.22 1.127.483 1.62.79.5.313.967.687 1.4 1.12l.79-1.54c.527-1.02 1.193-2.29 2-3.81.807-1.52 1.69-3.193 2.65-5.02.96-1.833 1.86-3.54 2.7-5.12.833-1.58 1.56-2.943 2.18-4.09.62-1.147.993-1.843 1.12-2.09.373-.56.947-.903 1.72-1.03a5.425 5.425 0 0 1 2.23.1c.713.187 1.27.527 1.67 1.02.407.493.423 1.083.05 1.77-.307.62-.973 1.89-2 3.81-1.02 1.92-2.197 4.153-3.53 6.7-1.333 2.54-2.743 5.22-4.23 8.04a828.602 828.602 0 0 1-4.24 7.91 6793.73 6793.73 0 0 0-3.44 6.32 262.144 262.144 0 0 1-1.81 3.3c-.433.68-.587 1.16-.46 1.44.12.28.383.403.79.37.4-.027.88-.197 1.44-.51.553-.307 1.11-.74 1.67-1.3a151.567 151.567 0 0 0 2.6-2.65c.62-.653 1.333-1.507 2.14-2.56zm-13.76 2.61a20.312 20.312 0 0 0 2.28-3.58c.587-1.213 1.02-2.33 1.3-3.35.28-1.027.39-1.927.33-2.7-.067-.773-.347-1.347-.84-1.72s-1.13-.48-1.91-.32c-.773.153-1.61.507-2.51 1.06-.9.56-1.83 1.307-2.79 2.24a31.81 31.81 0 0 0-2.84 3.16c-.927 1.24-1.7 2.45-2.32 3.63-.62 1.173-1.07 2.273-1.35 3.3-.28 1.02-.373 1.917-.28 2.69.093.78.39 1.357.89 1.73.493.367 1.127.49 1.9.37.773-.127 1.61-.47 2.51-1.03.9-.553 1.83-1.297 2.79-2.23.96-.927 1.907-2.01 2.84-3.25zm43.243-2.61c.434-.553.977-.847 1.63-.88a3.54 3.54 0 0 1 1.81.37c.56.28.964.667 1.21 1.16.247.5.154 1.03-.28 1.59-.306.367-.723.907-1.25 1.62a33.395 33.395 0 0 1-1.86 2.28c-.713.807-1.473 1.643-2.28 2.51a31.5 31.5 0 0 1-2.51 2.42c-1.673 1.487-3.163 2.51-4.47 3.07-1.3.56-2.446.807-3.44.74-.993-.06-1.83-.37-2.51-.93a8.817 8.817 0 0 1-1.77-1.95c-.986.62-2.053 1.27-3.2 1.95-1.153.687-2.876 1.03-5.17 1.03-1.606 0-3-.373-4.18-1.12-1.18-.747-2.05-1.8-2.61-3.16-.553-1.367-.736-2.993-.55-4.88.187-1.893.9-3.957 2.14-6.19 1.174-2.233 2.584-4.17 4.23-5.81 1.64-1.647 3.297-2.997 4.97-4.05 1.674-1.053 3.304-1.827 4.89-2.32 1.58-.5 2.957-.75 4.13-.75.807 0 1.507.11 2.1.33.587.22 1.127.483 1.62.79.5.313.967.687 1.4 1.12.374-.747.994-1.29 1.86-1.63.867-.34 1.687-.463 2.46-.37.78.093 1.37.387 1.77.88.407.493.36 1.177-.14 2.05a438.834 438.834 0 0 1-4.18 8.13c-.806 1.52-1.566 2.947-2.28 4.28-.713 1.333-1.286 2.31-1.72 2.93-.373.68-.513 1.16-.42 1.44.094.28.357.403.79.37.434-.027.93-.197 1.49-.51.554-.307 1.11-.74 1.67-1.3a142.829 142.829 0 0 1 2.56-2.65c.647-.653 1.344-1.507 2.09-2.56zm-13.67 2.61a20.312 20.312 0 0 0 2.28-3.58c.587-1.213 1.02-2.33 1.3-3.35.28-1.027.39-1.927.33-2.7-.066-.773-.346-1.347-.84-1.72-.493-.373-1.13-.48-1.91-.32-.773.153-1.61.507-2.51 1.06-.9.56-1.83 1.307-2.79 2.24-.96.927-1.906 1.98-2.84 3.16-.926 1.24-1.7 2.45-2.32 3.63-.62 1.173-1.07 2.273-1.35 3.3-.28 1.02-.373 1.917-.28 2.69.094.78.39 1.357.89 1.73.434.367 1.037.49 1.81.37.774-.127 1.627-.47 2.56-1.03.927-.553 1.87-1.297 2.83-2.23.96-.927 1.907-2.01 2.84-3.25zm35.711-15.07a323.644 323.644 0 0 1-5.16 4.65 300.88 300.88 0 0 1-5.16 4.46 357.823 357.823 0 0 1-5.68 4.66 9.955 9.955 0 0 0-.79 3.62c-.027 1.24.223 2.247.75 3.02.527.78 1.333 1.183 2.42 1.21 1.08.033 2.457-.57 4.13-1.81a31.06 31.06 0 0 0 3.96-3.67c1.267-1.4 2.337-2.627 3.21-3.68.367-.553.877-.847 1.53-.88.653-.033 1.243.09 1.77.37.527.28.913.667 1.16 1.16.247.5.153 1.03-.28 1.59-.307.367-.71.907-1.21 1.62a30.47 30.47 0 0 1-1.76 2.28 56.548 56.548 0 0 1-2.28 2.51 39.13 39.13 0 0 1-2.56 2.42c-1.673 1.487-3.333 2.527-4.98 3.12-1.64.587-3.157.85-4.55.79-1.4-.067-2.657-.377-3.77-.93-1.113-.56-1.98-1.243-2.6-2.05a7.003 7.003 0 0 1-1.45-3.16 12.03 12.03 0 0 1-.09-3.63c.153-1.24.417-2.45.79-3.63a27.586 27.586 0 0 1 1.3-3.34 76.663 76.663 0 0 1 5.77-10.56c2.173-3.32 4.42-6.327 6.74-9.02 2.327-2.7 4.653-5.04 6.98-7.02 2.32-1.987 4.473-3.443 6.46-4.37 1.487-.747 2.603-1.043 3.35-.89.747.16 1.367.827 1.86 2 .433.993.603 2.127.51 3.4-.093 1.267-.51 2.693-1.25 4.28-.747 1.58-1.863 3.33-3.35 5.25-1.493 1.92-3.417 3.997-5.77 6.23zm4.46-14.79c-2.6 1.987-4.83 4.033-6.69 6.14-1.86 2.107-3.41 4.03-4.65 5.77-1.487 2.047-2.727 4.03-3.72 5.95 3.04-2.787 5.707-5.39 8-7.81a50.91 50.91 0 0 0 2.83-3.07c.9-1.053 1.69-2.03 2.37-2.93.687-.9 1.2-1.707 1.54-2.42.34-.713.447-1.257.32-1.63zm64.175 24.84c-1.92.06-3.61.103-5.07.13-1.46.033-2.87.05-4.23.05a73.02 73.02 0 0 1-4.28 6.88c-1.486 2.113-3.083 3.927-4.79 5.44-1.706 1.52-3.503 2.7-5.39 3.54-1.893.833-3.956 1.25-6.19 1.25-1.86 0-3.593-.293-5.2-.88-1.613-.587-2.993-1.393-4.14-2.42a10.07 10.07 0 0 1-2.61-3.63c-.586-1.393-.82-2.897-.7-4.51.254-2.667.984-4.697 2.19-6.09 1.207-1.393 2.57-2.383 4.09-2.97 1.52-.593 3.04-.843 4.56-.75 1.52.093 2.714.297 3.58.61.807.367 1.38.86 1.72 1.48.34.62.464 1.21.37 1.77-.093.56-.356.993-.79 1.3-.433.313-1.023.313-1.77 0-1.24-.493-2.37-.57-3.39-.23-1.02.34-1.84.9-2.46 1.68-.62.773-1.023 1.687-1.21 2.74-.186 1.053-.11 2.06.23 3.02s.99 1.767 1.95 2.42 2.31.98 4.05.98c2.54 0 4.88-1.04 7.02-3.12 2.14-2.08 4.2-4.853 6.18-8.32-1.24 0-1.996-.28-2.27-.84-.28-.56-.266-1.163.04-1.81.314-.653.874-1.26 1.68-1.82a5.267 5.267 0 0 1 2.69-.93h.75c.247-.553.494-1.093.74-1.62.247-.527.527-1.07.84-1.63-2.546 1.487-5.043 2.493-7.49 3.02-2.446.527-4.723.59-6.83.19-2.113-.407-3.96-1.277-5.54-2.61s-2.803-3.117-3.67-5.35c-.866-2.167-1.036-4.6-.51-7.3.527-2.693 1.674-5.39 3.44-8.09 1.767-2.693 4.09-5.25 6.97-7.67 2.887-2.42 6.284-4.467 10.19-6.14 3.78-1.607 7.56-2.643 11.34-3.11 3.787-.467 7.354-.453 10.7.04l.18-.18c.56-.807 1.244-1.32 2.05-1.54.807-.213 1.537-.213 2.19 0 .647.22 1.11.623 1.39 1.21.28.593.204 1.293-.23 2.1 4.774 1.42 8.834 1.977 12.18 1.67 3.347-.313 6.2-1.46 8.56-3.44.494-.373 1.174-.543 2.04-.51.874.027 1.664.197 2.37.51.714.307 1.197.757 1.45 1.35.247.587.03 1.22-.65 1.9-1.24 1.24-2.836 2.327-4.79 3.26-1.953.927-4.186 1.577-6.7 1.95-2.513.373-5.256.437-8.23.19-2.973-.253-6.103-.937-9.39-2.05a93.249 93.249 0 0 0-4.24 7.91 262.05 262.05 0 0 0-3.9 8.55 5509.2 5509.2 0 0 0-3.81 8.74 276.06 276.06 0 0 1-3.86 8.47c1.734 0 3.407-.017 5.02-.05 1.614-.033 2.854-.05 3.72-.05.927 0 1.5.28 1.72.84.214.56.167 1.163-.14 1.81-.313.653-.81 1.26-1.49 1.82-.68.56-1.423.84-2.23.84zm-6.51-20a319.614 319.614 0 0 1 4.83-10.51 132.938 132.938 0 0 1 5.21-9.76c-2.6-.127-5.59.12-8.97.74-3.38.62-6.666 1.737-9.86 3.35a31.243 31.243 0 0 0-8.56 6.37c-2.506 2.633-4.193 5.873-5.06 9.72-.56 2.54-.576 4.54-.05 6 .527 1.453 1.427 2.46 2.7 3.02 1.267.56 2.8.73 4.6.51 1.8-.22 3.63-.763 5.49-1.63a27.42 27.42 0 0 0 5.34-3.3c1.707-1.333 3.15-2.837 4.33-4.51zm38.312 22.41c.373-.553.886-.847 1.54-.88.646-.033 1.25.09 1.81.37s.963.667 1.21 1.16c.246.5.153 1.03-.28 1.59a35.93 35.93 0 0 0-1.25 1.62 51.07 51.07 0 0 1-1.82 2.28 69.1 69.1 0 0 1-2.23 2.51 31.843 31.843 0 0 1-2.51 2.42c-1.734 1.487-3.254 2.51-4.56 3.07-1.3.56-2.43.807-3.39.74-.96-.06-1.784-.37-2.47-.93a8.607 8.607 0 0 1-1.76-1.95c-.5.307-1.014.633-1.54.98-.527.34-1.1.663-1.72.97-.62.313-1.347.563-2.18.75-.84.187-1.817.28-2.93.28-3.167 0-5.014-1.287-5.54-3.86-.527-2.573.483-6 3.03-10.28a91.237 91.237 0 0 0 1.76-3.12c.62-1.147 1.256-2.277 1.91-3.39a278.908 278.908 0 0 1 1.86-3.16 86.283 86.283 0 0 1 1.53-2.51c.56-.867 1.26-1.427 2.1-1.68.833-.247 1.623-.247 2.37 0 .74.253 1.28.673 1.62 1.26.346.587.3 1.283-.14 2.09-.68 1.18-1.454 2.56-2.32 4.14l-2.32 4.23c-.687 1.24-1.354 2.42-2 3.54a29.43 29.43 0 0 0-1.59 3.06c-.4.933-.677 1.727-.83 2.38-.16.647-.084 1.093.23 1.34.68.56 1.843.237 3.49-.97 1.64-1.213 3.39-3.027 5.25-5.44.68-.867 1.456-2.077 2.33-3.63a454.654 454.654 0 0 0 2.51-4.56c.926-1.733 1.886-3.56 2.88-5.48.373-.747.976-1.29 1.81-1.63.84-.34 1.646-.463 2.42-.37.773.093 1.38.387 1.82.88.433.493.4 1.177-.1 2.05-.494.987-1.127 2.21-1.9 3.67-.78 1.453-1.57 2.94-2.37 4.46-.807 1.52-1.567 2.947-2.28 4.28-.714 1.333-1.257 2.31-1.63 2.93-.374.68-.514 1.16-.42 1.44.093.28.34.403.74.37.406-.027.903-.197 1.49-.51.593-.307 1.166-.74 1.72-1.3 1.053-1.113 1.89-1.997 2.51-2.65.62-.653 1.333-1.507 2.14-2.56zm.002 0c1.24-1.427 2.574-3.207 4-5.34a908.05 908.05 0 0 0 3.91-5.91c-.746-.927-1.323-2.057-1.73-3.39a15.36 15.36 0 0 1-.65-4.05c-.026-1.367.144-2.653.51-3.86.374-1.207 1.027-2.183 1.96-2.93 1.36-1.053 2.66-1.597 3.9-1.63 1.24-.027 2.297.3 3.17.98.867.68 1.5 1.627 1.9 2.84.407 1.207.484 2.493.23 3.86-.12.8-.43 1.73-.93 2.79a61.086 61.086 0 0 1-1.76 3.44c.74.187 1.577.187 2.51 0 .994-.187 1.83-.14 2.51.14.68.28 1.207.667 1.58 1.16.374.493.56 1.037.56 1.63 0 .587-.186 1.067-.56 1.44-.246.247-.743.803-1.49 1.67-.74.867-1.59 1.907-2.55 3.12a97.808 97.808 0 0 0-2.93 3.86 43.299 43.299 0 0 0-2.56 3.9c-.713 1.24-1.24 2.34-1.58 3.3-.34.967-.293 1.603.14 1.91.68.62 1.64.683 2.88.19 1.24-.5 2.544-1.26 3.91-2.28a42.75 42.75 0 0 0 4-3.44c1.3-1.273 2.354-2.407 3.16-3.4a2.233 2.233 0 0 1 1.62-.79c.654-.027 1.244.083 1.77.33.527.247.914.617 1.16 1.11.254.5.16 1.03-.28 1.59-.926 1.3-2.243 2.833-3.95 4.6a34.405 34.405 0 0 1-5.67 4.74c-2.08 1.393-4.203 2.4-6.37 3.02-2.173.62-4.19.437-6.05-.55-1.606-.807-2.503-2.08-2.69-3.82-.186-1.733.124-3.607.93-5.62.807-2.02 1.954-4.05 3.44-6.09 1.487-2.047 3.097-3.783 4.83-5.21.5-.433.764-.73.79-.89.034-.153-.6-.477-1.9-.97a176.96 176.96 0 0 1-4.51 6.69 1654.07 1654.07 0 0 1-2.93 4.1c-.5.613-1.073.937-1.72.97-.653.033-1.226-.107-1.72-.42a2.572 2.572 0 0 1-1.07-1.25c-.22-.527-.143-1.04.23-1.54zm11.9-22.41c-.493 0-.88.2-1.16.6-.28.407-.466.937-.56 1.59a6.759 6.759 0 0 0 .05 2.09c.127.74.374 1.453.74 2.14.374-.747.717-1.493 1.03-2.24.307-.74.524-1.42.65-2.04.12-.62.12-1.133 0-1.54-.126-.4-.376-.6-.75-.6zm27.717 22.41c.373-.553.887-.847 1.54-.88a3.57 3.57 0 0 1 1.81.37c.56.28.963.667 1.21 1.16.247.5.153 1.03-.28 1.59-.62.8-1.443 1.82-2.47 3.06-1.02 1.24-2.367 2.667-4.04 4.28a42.59 42.59 0 0 1-2.88 2.51 15.29 15.29 0 0 1-2.61 1.68c-.867.433-1.763.743-2.69.93-.933.187-1.957.28-3.07.28-3.167 0-5.013-1.287-5.54-3.86-.527-2.573.483-6 3.03-10.28a91.237 91.237 0 0 0 1.76-3.12 111.07 111.07 0 0 1 1.91-3.39 312.44 312.44 0 0 1 1.86-3.16 90.968 90.968 0 0 1 1.53-2.51c.56-.867 1.273-1.427 2.14-1.68.867-.247 1.657-.247 2.37 0 .713.253 1.257.673 1.63 1.26s.31 1.283-.19 2.09c-.68 1.18-1.453 2.56-2.32 4.14l-2.32 4.23c-.687 1.24-1.353 2.42-2 3.54a29.825 29.825 0 0 0-1.59 3.06c-.4.933-.677 1.727-.83 2.38-.16.647-.083 1.093.23 1.34.307.313.757.393 1.35.24.587-.16 1.22-.457 1.9-.89.687-.433 1.37-.93 2.05-1.49.68-.553 1.3-1.11 1.86-1.67 1.053-1.113 1.89-1.997 2.51-2.65.62-.653 1.333-1.507 2.14-2.56zm3.81-20.74c-.307.5-.707.997-1.2 1.49-.5.5-.903.873-1.21 1.12a8.044 8.044 0 0 1-2.52 1.02c-.867.187-1.593.217-2.18.09-.587-.12-.99-.43-1.21-.93-.213-.493-.043-1.173.51-2.04.187-.373.467-.853.84-1.44.373-.593.713-1.137 1.02-1.63.5-.747 1.183-1.197 2.05-1.35.867-.153 1.673-.107 2.42.14.74.247 1.297.68 1.67 1.3s.31 1.363-.19 2.23zm24.831 20.74c.373-.553.886-.847 1.54-.88.653-.033 1.243.073 1.77.32.526.253.896.643 1.11 1.17.22.527.143 1.07-.23 1.63-.494.74-1.224 1.577-2.19 2.51-.96.927-2.09 1.747-3.39 2.46-1.3.713-2.68 1.21-4.14 1.49a7.29 7.29 0 0 1-4.23-.42c-1.8 1.987-3.8 3.567-6 4.74-2.2 1.18-4.387 1.77-6.56 1.77-1.607 0-3-.373-4.18-1.12a6.95 6.95 0 0 1-2.65-2.97c-.594-1.24-.89-2.713-.89-4.42 0-1.707.343-3.52 1.03-5.44.74-1.92 1.73-3.733 2.97-5.44a23.642 23.642 0 0 1 4.19-4.46c1.546-1.273 3.173-2.283 4.88-3.03 1.706-.74 3.396-1.11 5.07-1.11 1.673 0 3.1.37 4.28 1.11a6.963 6.963 0 0 1 2.65 3.03c.586 1.267.88 2.753.88 4.46 0 1.707-.34 3.52-1.02 5.44-.187.493-.374.96-.56 1.4-.187.433-.404.867-.65 1.3.926.06 1.996-.25 3.21-.93a11.12 11.12 0 0 0 3.11-2.61zm-10.97.47c.993-2.173 1.24-4.02.74-5.54-.494-1.513-1.547-2.27-3.16-2.27-.807 0-1.66.2-2.56.6-.894.4-1.76.957-2.6 1.67-.84.713-1.63 1.537-2.37 2.47a11.43 11.43 0 0 0-1.77 3.07c-.927 2.167-1.144 4.01-.65 5.53.493 1.52 1.546 2.28 3.16 2.28.806 0 1.66-.2 2.56-.6.9-.407 1.766-.967 2.6-1.68.84-.713 1.6-1.55 2.28-2.51a19.245 19.245 0 0 0 1.77-3.02zm37.103-.47c.374-.553.887-.847 1.54-.88a3.57 3.57 0 0 1 1.81.37c.56.28.964.667 1.21 1.16.247.5.154 1.03-.28 1.59-.306.367-.723.907-1.25 1.62a50.36 50.36 0 0 1-1.82 2.28 68.162 68.162 0 0 1-2.23 2.51 31.5 31.5 0 0 1-2.51 2.42c-1.733 1.487-3.253 2.51-4.56 3.07-1.3.56-2.43.807-3.39.74-.96-.06-1.783-.37-2.47-.93a8.63 8.63 0 0 1-1.76-1.95c-.5.307-1.013.633-1.54.98-.526.34-1.1.663-1.72.97-.62.313-1.346.563-2.18.75-.84.187-1.816.28-2.93.28-3.166 0-5.013-1.287-5.54-3.86-.526-2.573.484-6 3.03-10.28a89.57 89.57 0 0 0 1.76-3.12 111.07 111.07 0 0 1 1.91-3.39 312.44 312.44 0 0 1 1.86-3.16 90.968 90.968 0 0 1 1.53-2.51c.56-.867 1.26-1.427 2.1-1.68.834-.247 1.624-.247 2.37 0 .74.253 1.28.673 1.62 1.26.347.587.3 1.283-.14 2.09-.68 1.18-1.453 2.56-2.32 4.14l-2.32 4.23a219.68 219.68 0 0 1-2 3.54 29.825 29.825 0 0 0-1.59 3.06c-.4.933-.676 1.727-.83 2.38-.16.647-.083 1.093.23 1.34.68.56 1.844.237 3.49-.97 1.64-1.213 3.39-3.027 5.25-5.44.68-.867 1.457-2.077 2.33-3.63a417.796 417.796 0 0 0 2.51-4.56c.927-1.733 1.887-3.56 2.88-5.48.374-.747.977-1.29 1.81-1.63.84-.34 1.647-.463 2.42-.37.774.093 1.38.387 1.82.88.434.493.4 1.177-.1 2.05-.493.987-1.126 2.21-1.9 3.67-.78 1.453-1.57 2.94-2.37 4.46-.806 1.52-1.566 2.947-2.28 4.28-.713 1.333-1.256 2.31-1.63 2.93-.373.68-.513 1.16-.42 1.44.094.28.34.403.74.37.407-.027.904-.197 1.49-.51.594-.307 1.167-.74 1.72-1.3 1.054-1.113 1.89-1.997 2.51-2.65.62-.653 1.334-1.507 2.14-2.56zm18.693-13.48a27.059 27.059 0 0 1-2.69 3.3c-.933.96-1.463 2.183-1.59 3.67-.12.747-.01 1.6.33 2.56s.68 2.013 1.02 3.16c.34 1.147.557 2.387.65 3.72.093 1.333-.137 2.777-.69 4.33a9.798 9.798 0 0 0 1.76-1.21c1.427-1.053 2.513-2.06 3.26-3.02.747-.967 1.52-1.977 2.32-3.03.373-.553.887-.847 1.54-.88a3.366 3.366 0 0 1 1.77.37c.527.28.913.667 1.16 1.16.247.5.183 1.03-.19 1.59-.62.8-1.44 1.837-2.46 3.11-1.027 1.273-2.407 2.683-4.14 4.23-2.107 1.86-4.34 3.177-6.7 3.95-2.353.78-4.49 1.2-6.41 1.26-1.06.187-2.117.25-3.17.19a9.267 9.267 0 0 1-2.93-.65 8.77 8.77 0 0 1-2.37-1.45 6.131 6.131 0 0 1-1.58-2.09c-.927-2.107-1.113-3.983-.56-5.63.56-1.64 1.553-3.36 2.98-5.16.307-.373.803-.993 1.49-1.86.68-.867 1.47-1.857 2.37-2.97.9-1.12 1.847-2.283 2.84-3.49a504.55 504.55 0 0 0 2.79-3.44c.867-1.087 1.623-2.033 2.27-2.84.653-.807 1.137-1.363 1.45-1.67.493-.5 1.143-.763 1.95-.79a4.788 4.788 0 0 1 2.23.42c.68.307 1.177.753 1.49 1.34.307.593.243 1.2-.19 1.82zm-11.44 23.43c.747-.493 1.29-1.22 1.63-2.18.34-.96.51-2 .51-3.12a16.07 16.07 0 0 0-.37-3.39c-.247-1.147-.557-2.153-.93-3.02-1.733 2.047-3.037 3.58-3.91 4.6-.867 1.02-1.453 1.81-1.76 2.37-.373.56-.467 1.21-.28 1.95.187.747.543 1.4 1.07 1.96.527.553 1.147.94 1.86 1.16.713.22 1.44.11 2.18-.33zm37.854-22.41a332.614 332.614 0 0 1-10.32 9.11 357.823 357.823 0 0 1-5.68 4.66 9.935 9.935 0 0 0-.79 3.62c-.027 1.24.223 2.247.75 3.02.526.78 1.333 1.183 2.42 1.21 1.08.033 2.456-.57 4.13-1.81a31.195 31.195 0 0 0 3.96-3.67c1.266-1.4 2.336-2.627 3.21-3.68.366-.553.876-.847 1.53-.88.653-.033 1.243.09 1.77.37.526.28.913.667 1.16 1.16.246.5.153 1.03-.28 1.59-.307.367-.71.907-1.21 1.62a30.738 30.738 0 0 1-1.76 2.28 56.548 56.548 0 0 1-2.28 2.51 39.385 39.385 0 0 1-2.56 2.42c-1.674 1.487-3.334 2.527-4.98 3.12-1.64.587-3.157.85-4.55.79-1.4-.067-2.657-.377-3.77-.93-1.114-.56-1.98-1.243-2.6-2.05a7.003 7.003 0 0 1-1.45-3.16 11.966 11.966 0 0 1-.09-3.63c.153-1.24.416-2.45.79-3.63a27.421 27.421 0 0 1 1.3-3.34 76.556 76.556 0 0 1 5.77-10.56c2.173-3.32 4.42-6.327 6.74-9.02 2.326-2.7 4.653-5.04 6.98-7.02 2.32-1.987 4.473-3.443 6.46-4.37 1.486-.747 2.603-1.043 3.35-.89.746.16 1.366.827 1.86 2 .433.993.603 2.127.51 3.4-.094 1.267-.51 2.693-1.25 4.28-.747 1.58-1.864 3.33-3.35 5.25-1.494 1.92-3.417 3.997-5.77 6.23zm4.46-14.79c-2.6 1.987-4.83 4.033-6.69 6.14-1.86 2.107-3.41 4.03-4.65 5.77-1.487 2.047-2.727 4.03-3.72 5.95 3.04-2.787 5.706-5.39 8-7.81a51.24 51.24 0 0 0 2.83-3.07c.9-1.053 1.69-2.03 2.37-2.93.686-.9 1.2-1.707 1.54-2.42.34-.713.446-1.257.32-1.63zm20.095 27.25c.367-.553.877-.847 1.53-.88.654-.033 1.26.09 1.82.37.554.28.954.667 1.2 1.16.254.5.164 1.03-.27 1.59-.313.367-.733.907-1.26 1.62-.526.713-1.13 1.49-1.81 2.33a44.063 44.063 0 0 1-2.24 2.51 38.065 38.065 0 0 1-2.51 2.37c-1.426 1.113-3.116 2.153-5.07 3.12a89.205 89.205 0 0 1-5.9 2.65l-3.16 5.86c-1.553 2.913-3.476 4.973-5.77 6.18-2.293 1.207-4.433 1.78-6.42 1.72-1.98-.06-3.576-.663-4.79-1.81-1.206-1.147-1.53-2.65-.97-4.51.494-1.613 1.254-2.887 2.28-3.82 1.02-.927 2.244-1.717 3.67-2.37 1.427-.647 3.04-1.237 4.84-1.77 1.794-.527 3.747-1.223 5.86-2.09l.55-1.02c-.74.493-1.606.91-2.6 1.25-.993.347-2.263.52-3.81.52-3.166 0-5.013-1.287-5.54-3.86-.526-2.573.484-6 3.03-10.28.494-.933 1.067-1.973 1.72-3.12a726.39 726.39 0 0 0 1.9-3.39 121.4 121.4 0 0 1 1.82-3.16 90.968 90.968 0 0 1 1.53-2.51c.56-.867 1.274-1.427 2.14-1.68.867-.247 1.674-.247 2.42 0 .74.253 1.28.673 1.62 1.26.347.587.3 1.283-.14 2.09-.68 1.18-1.453 2.56-2.32 4.14l-2.32 4.23a219.68 219.68 0 0 1-2 3.54 29.825 29.825 0 0 0-1.59 3.06c-.4.933-.676 1.727-.83 2.38-.16.647-.083 1.093.23 1.34.307.253.91.253 1.81 0 .9-.247 1.877-.68 2.93-1.3a22.647 22.647 0 0 0 3.07-2.18c.994-.84 1.737-1.723 2.23-2.65.5-.933 1.06-2.037 1.68-3.31.62-1.267 1.254-2.553 1.9-3.86.654-1.3 1.29-2.553 1.91-3.76.62-1.207 1.147-2.213 1.58-3.02.434-.807 1.087-1.38 1.96-1.72.867-.347 1.687-.473 2.46-.38.774.093 1.364.403 1.77.93.4.527.354 1.227-.14 2.1-.5.987-1.153 2.21-1.96 3.67a346.001 346.001 0 0 0-2.41 4.42 230.551 230.551 0 0 0-2.24 4.23 119.56 119.56 0 0 1-1.58 3.02l-2.51 4.74a51.327 51.327 0 0 0 6.05-4.74c1.114-1.053 1.964-1.92 2.55-2.6a57.71 57.71 0 0 0 2.1-2.61zm-23.44 21.67l1.12-1.76c-2.173.867-4.003 1.657-5.49 2.37-1.486.713-2.323 1.44-2.51 2.18-.126.5.027.857.46 1.07.434.22.994.25 1.68.09.68-.153 1.454-.54 2.32-1.16.874-.62 1.68-1.55 2.42-2.79z"/></g></svg>