<?xml version="1.0" encoding="utf-8"?>
<svg viewBox="0 0 676 676" xmlns="http://www.w3.org/2000/svg">
  <g transform="matrix(1, 0, 0, 1, -0.000022, -0.000007)">
    <title>top</title>
    <g transform="matrix(0.996195, -0.087156, 0.087156, 0.996195, -28.172447, 30.744833)">
      <title>Rim with logo</title>
      <g transform="matrix(1, 0, 0, 1, 0.000046, 0.000028)">
        <title>RimTire</title>
        <path d="M 97.471 575.465 C -33.678 442.625 -32.306 228.619 100.535 97.471 C 233.375 -33.678 447.381 -32.306 578.529 100.535 C 709.678 233.375 708.306 447.381 575.465 578.529 C 442.625 709.678 228.619 708.306 97.471 575.465 Z M 487.273 605.121 C 634.8 522.68 687.561 336.253 605.12 188.727 C 522.678 41.2 336.253 -11.561 188.726 70.88 C 41.2 153.322 -11.562 339.747 70.879 487.274 C 153.321 634.8 339.747 687.562 487.273 605.121 Z" style="fill: rgb(42, 42, 42);"/>
        <path d="M 113.846 562.153 C -9.949 438.357 -9.949 237.643 113.846 113.847 C 237.644 -9.949 438.357 -9.949 562.153 113.847 C 685.949 237.643 685.949 438.356 562.153 562.153 C 438.357 685.949 237.644 685.949 113.846 562.153 Z M 487.273 605.121 C 634.8 522.68 687.562 336.253 605.12 188.727 C 548.922 88.161 444.403 31.631 336.825 31.947 C 336.879 31.876 336.908 31.803 336.908 31.729 C 336.908 31.065 334.641 30.528 331.846 30.528 C 329.05 30.528 326.784 31.065 326.784 31.729 C 326.784 31.87 326.887 32.006 327.075 32.131 C 280.025 33.773 232.651 46.334 188.726 70.88 C 41.2 153.322 -11.562 339.747 70.879 487.274 C 153.321 634.8 339.747 687.562 487.273 605.121 Z" style="fill: rgb(203, 203, 203);"/>
      </g>
      <g transform="matrix(1, 0, 0, 1, 24.18037, -197.36409)">
        <title>Logo</title>
        <g transform="matrix(1, 0, 0, 1, -3.7603, 1.880151)">
          <path d="M 349.18 204.195 C 348.673 204.195 348.137 204.495 347.753 204.999 C 347.522 205.306 347.262 205.904 347.086 206.551 C 346.805 207.616 346.825 208.21 347.158 208.579 C 347.314 208.751 347.578 208.849 347.874 208.849 C 348.17 208.849 348.484 208.743 348.726 208.571 C 349.296 208.153 349.67 207.526 349.938 206.531 C 350.214 205.495 350.207 204.9 349.903 204.503 C 349.757 204.31 349.492 204.195 349.18 204.195 Z M 348.053 206.166 C 348.25 205.449 348.411 205.019 348.574 204.752 C 348.677 204.581 348.89 204.434 349.045 204.434 C 349.274 204.434 349.408 204.622 349.4 204.941 C 349.393 205.208 349.331 205.568 349.172 206.166 L 348.053 206.166 Z M 349.094 206.461 C 348.87 207.268 348.726 207.735 348.636 207.956 C 348.445 208.411 348.24 208.611 347.973 208.611 C 347.751 208.611 347.629 208.452 347.627 208.141 C 347.618 207.875 347.689 207.534 347.966 206.461 L 349.094 206.461 Z" style="white-space: pre; fill: rgb(250, 121, 0);" transform="matrix(0.988443, 0.151595, -0.151595, 0.988443, 35.335583, -50.446185)"/>
          <g transform="matrix(1, 0, 0, 1, 0.470038, 0)">
            <g transform="matrix(0.987688, 0.151479, -0.156434, 0.956405, 40.384087, -35.462368)">
              <path d="M 276.635 206.814 C 279.137 206.814 280.6 208.75 280.6 211.134 C 280.6 213.518 279.137 215.454 276.635 215.454 C 274.132 215.454 272.669 213.518 272.669 211.134 C 272.669 208.75 274.132 206.814 276.635 206.814 Z M 276.635 214.58 C 277.449 214.58 277.674 213.519 277.674 211.111 C 277.674 208.703 277.449 207.641 276.635 207.641 C 275.821 207.641 275.597 208.703 275.597 211.111 C 275.597 213.519 275.821 214.58 276.635 214.58 Z" id="path257224" style="fill-opacity: 1; fill-rule: nonzero; stroke: none; fill: rgb(250, 121, 0);" transform="matrix(0.970295, -0.241924, 0.241924, 0.970295, -42.861024, 73.196255)"/>
              <path d="M 277.663 203.79 C 277.663 203.79 279.564 205.689 280.437 206.669 L 280.437 207.413 C 279.623 206.551 277.935 205.831 276.365 205.831 C 272.813 205.831 270.582 208.511 270.582 211.827 C 270.582 215.131 272.694 217.81 276.365 217.81 C 278.195 217.81 279.658 216.948 280.472 216.064 L 280.472 216.771 C 279.363 218.294 277.333 219.285 274.808 219.285 C 270.287 219.285 267.171 216.005 267.171 211.827 C 267.171 207.649 270.63 204.379 274.808 204.379 C 275.87 204.379 276.826 204.556 277.663 204.851 L 277.663 203.79 Z" id="path257224" style="fill-opacity: 1; fill-rule: nonzero; stroke: none; fill: rgb(250, 121, 0);" transform="matrix(0.970295, -0.241924, 0.241924, 0.970295, -43.042187, 72.527662)"/>
            </g>
            <g transform="matrix(0.987688, -0.151479, 0.156434, 0.956405, 2.843377, 102.487137)">
              <path d="M 321.654 165.735 L 329.838 165.735 L 333.601 165.735 M 332.909 164.114 L 326.423 156.856" style="stroke-width: 3; stroke-linecap: square; stroke-linejoin: bevel; fill: rgb(250, 121, 0); stroke: rgb(250, 121, 0);" transform="matrix(0.961262, 0.275637, -0.275637, 0.961262, 57.150696, -84.057952)"/>
            </g>
            <path d="M 276.018 207.895 L 275.618 204.74 L 275.132 204.802 C 275.053 205.135 274.938 205.26 274.65 205.297 C 274.511 205.314 274.306 205.29 273.935 205.226 C 273.223 205.095 272.726 205.067 272.19 205.135 C 270.236 205.384 268.956 206.897 269.191 208.742 C 269.375 210.19 270.414 211.076 272.715 211.732 C 274.305 212.185 274.971 212.665 275.058 213.349 C 275.167 214.213 274.573 214.852 273.601 214.976 C 272.083 215.169 270.938 214.326 270.229 212.471 L 269.633 212.546 L 270.091 216.148 L 270.646 216.077 C 270.803 215.563 270.924 215.407 271.123 215.381 C 271.251 215.365 271.417 215.395 271.626 215.459 C 272.325 215.642 273.446 215.742 274.071 215.662 C 276.046 215.411 277.253 213.887 277.005 211.933 C 276.807 210.375 275.845 209.55 273.577 208.911 C 271.98 208.478 271.314 207.999 271.221 207.264 C 271.127 206.53 271.656 205.929 272.499 205.822 C 273.084 205.748 273.69 205.913 274.213 206.3 C 274.736 206.687 275.034 207.052 275.463 207.966 L 276.018 207.895 ZM 283.671 213.789 C 282.909 213.801 282.608 213.488 282.53 212.661 L 281.742 204.349 L 277.55 204.746 L 277.599 205.254 C 278.571 205.342 278.771 205.544 278.876 206.439 L 279.487 212.88 C 279.554 213.797 279.412 213.992 278.455 214.283 L 278.506 214.821 L 283.722 214.326 L 283.671 213.789 Z M 279.723 199.477 C 278.787 199.566 278.102 200.395 278.191 201.33 C 278.281 202.286 279.068 202.955 280.024 202.864 C 280.999 202.772 281.668 201.985 281.578 201.029 C 281.487 200.074 280.659 199.389 279.723 199.477 ZM 296.153 213.003 C 295.342 213.009 295.035 212.706 295.006 211.836 L 294.693 206.315 C 294.587 204.438 293.382 203.314 291.575 203.417 C 290.227 203.493 289.301 204.126 288.547 205.491 L 288.454 203.844 L 284.27 204.08 L 284.299 204.59 C 285.277 204.694 285.458 204.885 285.541 205.821 L 285.906 212.281 C 285.929 213.221 285.772 213.44 284.812 213.645 L 284.842 214.184 L 290.124 213.885 L 290.093 213.346 C 289.299 213.301 288.991 212.988 288.945 212.179 L 288.614 206.319 C 288.609 206.229 288.756 206 288.964 205.788 C 289.405 205.262 289.929 204.962 290.428 204.934 C 291.187 204.891 291.601 205.478 291.669 206.687 L 291.971 212.008 C 291.997 212.838 291.718 213.214 291.012 213.294 L 291.042 213.833 L 296.184 213.542 L 296.153 213.003 ZM 305.584 210.69 C 304.718 211.752 304.054 212.161 303.114 212.174 C 302.264 212.186 301.609 211.815 301.148 211.041 C 300.708 210.347 300.548 209.609 300.437 208.111 L 305.967 208.034 C 305.811 206.206 305.457 205.181 304.755 204.34 C 304.024 203.521 303.008 203.085 301.778 203.102 C 299.068 203.139 297.238 205.335 297.283 208.535 C 297.327 211.744 299.146 213.819 301.876 213.781 C 303.646 213.757 304.716 213.052 306.118 210.972 L 305.584 210.69 Z M 300.316 207.312 C 300.339 204.662 300.707 203.787 301.807 203.771 C 302.437 203.763 302.842 204.097 303.031 204.784 C 303.127 205.213 303.205 205.792 303.241 206.932 L 303.246 207.272 L 300.316 207.312 ZM 318.591 213.144 C 317.782 213.084 317.5 212.756 317.542 211.887 L 317.681 206.359 C 317.728 204.479 316.618 203.261 314.809 203.216 C 313.459 203.182 312.485 203.738 311.622 205.036 L 311.664 203.387 L 307.475 203.282 L 307.462 203.792 C 308.428 203.976 308.593 204.18 308.599 205.121 L 308.437 211.589 C 308.383 212.528 308.208 212.733 307.235 212.859 L 307.221 213.399 L 312.509 213.531 L 312.523 212.992 C 311.735 212.882 311.454 212.545 311.474 211.735 L 311.621 205.867 C 311.624 205.777 311.789 205.561 312.014 205.366 C 312.496 204.878 313.043 204.622 313.543 204.635 C 314.303 204.654 314.667 205.273 314.637 206.483 L 314.503 211.811 C 314.462 212.64 314.153 212.992 313.443 213.015 L 313.429 213.554 L 318.577 213.684 L 318.591 213.144 ZM 326.369 204.014 L 324.312 203.898 L 324.523 200.184 L 323.964 200.152 C 322.539 201.954 321.615 202.883 320.117 204.04 L 320.084 204.619 L 321.223 204.684 L 320.819 211.793 C 320.739 213.2 321.627 214.152 323.124 214.237 C 324.602 214.321 325.529 213.702 326.509 211.955 L 325.984 211.685 C 325.486 212.508 325.14 212.779 324.671 212.752 C 324.062 212.718 323.834 212.324 323.883 211.456 L 324.258 204.856 L 326.314 204.973 L 326.369 204.014 ZM 337.262 213.617 L 337.014 213.817 C 336.939 213.881 336.897 213.898 336.788 213.888 C 336.469 213.862 336.334 213.67 336.364 213.311 L 336.842 207.601 C 336.997 205.748 335.438 204.473 332.757 204.249 C 330.286 204.042 328.538 205.02 328.402 206.644 C 328.326 207.561 328.789 208.142 329.686 208.217 C 330.572 208.291 331.224 207.824 331.287 207.066 C 331.313 206.757 331.226 206.479 330.967 206.096 C 330.806 205.862 330.748 205.717 330.759 205.587 C 330.796 205.139 331.424 204.83 332.211 204.896 C 333.487 205.002 333.996 205.637 333.884 206.972 L 333.75 208.577 C 331.063 209.145 329.962 209.474 329.108 209.965 C 328.095 210.552 327.585 211.252 327.507 212.189 C 327.394 213.534 328.319 214.595 329.744 214.714 C 331 214.819 332.043 214.465 333.34 213.47 C 333.466 214.604 333.92 215.063 334.996 215.153 C 335.953 215.233 336.648 214.96 337.551 214.113 L 337.262 213.617 Z M 333.391 212.501 C 332.735 213.148 332.286 213.361 331.758 213.317 C 331.08 213.26 330.692 212.616 330.765 211.749 C 330.87 210.493 331.853 209.652 333.656 209.332 L 333.391 212.501 ZM 343.562 215.175 C 342.864 215.121 342.533 214.643 342.626 213.768 L 343.998 200.85 L 339.861 200.411 L 339.806 200.928 C 340.528 201.045 340.843 201.481 340.786 202.309 L 339.603 213.447 C 339.485 214.269 339.038 214.694 338.351 214.621 L 338.294 215.158 L 343.505 215.712 L 343.562 215.175 Z" transform="matrix(0.7572810053825378, 0, 0, 0.7332950234413147, 82.14625549316406, 53.41238784790039)" style="fill: rgb(250, 121, 0); line-height: 38.0308px; white-space: pre;"/>
          </g>
        </g>
      </g>
    </g>
    <g transform="matrix(1.001634, 0, 0, 1.001634, -0.552273, -0.552287)">
      <title>Hub and spokes</title>
      <g id="SvgjsG1009">
        <line id="SvgjsLine1012" x1="644" y1="338" x2="345.6536686473018" y2="356.47759065022575" stroke="#bbbbbb" stroke-width="2.3"/>
        <line id="SvgjsLine1013" x1="397.69763853693524" y1="638.1202958033884" x2="358" y2="338" stroke="#bbbbbb" stroke-width="2.3"/>
        <line id="SvgjsLine1014" x1="638.1202958033884" y1="397.69763853693524" x2="345.6536686473018" y2="356.47759065022575" stroke="#bbbbbb" stroke-width="2.3"/>
        <line id="SvgjsLine1016" x1="554.3746750430836" y1="554.3746750430835" x2="330.3463313526982" y2="356.47759065022575" stroke="#bbbbbb" stroke-width="2.3"/>
        <line id="SvgjsLine1017" x1="167.9955086960018" y1="592.4297013645789" x2="352.14213562373095" y2="352.14213562373095" stroke="#bbbbbb" stroke-width="2.3"/>
        <line id="SvgjsLine1018" x1="508.0044913039983" y1="592.4297013645788" x2="330.3463313526982" y2="356.47759065022575" stroke="#bbbbbb" stroke-width="2.3"/>
        <line id="SvgjsLine1020" x1="338" y1="644" x2="319.52240934977425" y2="345.6536686473018" stroke="#bbbbbb" stroke-width="2.3"/>
        <line id="SvgjsLine1021" x1="37.8797041966115" y1="397.69763853693536" x2="338" y2="358" stroke="#bbbbbb" stroke-width="2.3"/>
        <line id="SvgjsLine1022" x1="278.30236146306476" y1="638.1202958033884" x2="319.52240934977425" y2="345.6536686473018" stroke="#bbbbbb" stroke-width="2.3"/>
        <line id="SvgjsLine1024" x1="121.62532495691647" y1="554.3746750430836" x2="319.52240934977425" y2="330.3463313526982" stroke="#bbbbbb" stroke-width="2.3"/>
        <line id="SvgjsLine1025" x1="83.5702986354211" y1="167.9955086960018" x2="323.85786437626905" y2="352.14213562373095" stroke="#bbbbbb" stroke-width="2.3"/>
        <line id="SvgjsLine1026" x1="83.57029863542112" y1="508.0044913039983" x2="319.52240934977425" y2="330.3463313526982" stroke="#bbbbbb" stroke-width="2.3"/>
        <line id="SvgjsLine1028" x1="32" y1="338.00000000000006" x2="330.3463313526982" y2="319.52240934977425" stroke="#bbbbbb" stroke-width="2.3"/>
        <line id="SvgjsLine1029" x1="278.30236146306464" y1="37.8797041966115" x2="318" y2="338" stroke="#bbbbbb" stroke-width="2.3"/>
        <line id="SvgjsLine1030" x1="37.8797041966115" y1="278.3023614630647" x2="330.3463313526982" y2="319.52240934977425" stroke="#bbbbbb" stroke-width="2.3"/>
        <line id="SvgjsLine1032" x1="121.62532495691642" y1="121.62532495691647" x2="345.6536686473018" y2="319.52240934977425" stroke="#bbbbbb" stroke-width="2.3"/>
        <line id="SvgjsLine1033" x1="508.0044913039982" y1="83.57029863542107" x2="323.85786437626905" y2="323.85786437626905" stroke="#bbbbbb" stroke-width="2.3"/>
        <line id="SvgjsLine1034" x1="167.99550869600174" y1="83.57029863542115" x2="345.6536686473018" y2="319.52240934977425" stroke="#bbbbbb" stroke-width="2.3"/>
        <line id="SvgjsLine1036" x1="337.99999999999994" y1="32" x2="356.47759065022575" y2="330.3463313526982" stroke="#bbbbbb" stroke-width="2.3"/>
        <line id="SvgjsLine1037" x1="638.1202958033884" y1="278.3023614630646" x2="338" y2="318" stroke="#bbbbbb" stroke-width="2.3"/>
        <line id="SvgjsLine1038" x1="397.69763853693524" y1="37.8797041966115" x2="356.47759065022575" y2="330.3463313526982" stroke="#bbbbbb" stroke-width="2.3"/>
        <line id="SvgjsLine1040" x1="554.3746750430835" y1="121.62532495691642" x2="356.47759065022575" y2="345.6536686473018" stroke="#bbbbbb" stroke-width="2.3"/>
        <line id="SvgjsLine1041" x1="592.4297013645788" y1="508.0044913039983" x2="352.14213562373095" y2="323.85786437626905" stroke="#bbbbbb" stroke-width="2.3"/>
        <line id="SvgjsLine1042" x1="592.4297013645788" y1="167.99550869600174" x2="356.47759065022575" y2="345.6536686473018" stroke="#bbbbbb" stroke-width="2.3"/>
      </g>
      <g id="SvgjsG1010">
        <circle id="SvgjsCircle1044" r="25" cx="338" cy="338" fill="#dddddd"/>
        <circle id="SvgjsCircle1045" r="2.1" cx="358" cy="338" fill="#bbbbbb"/>
        <circle id="SvgjsCircle1046" r="2.1" cx="356.47759065022575" cy="345.6536686473018" fill="#bbbbbb"/>
        <circle id="SvgjsCircle1047" r="2.1" cx="352.14213562373095" cy="352.14213562373095" fill="#bbbbbb"/>
        <circle id="SvgjsCircle1048" r="2.1" cx="345.6536686473018" cy="356.47759065022575" fill="#bbbbbb"/>
        <circle id="SvgjsCircle1049" r="2.1" cx="338" cy="358" fill="#bbbbbb"/>
        <circle id="SvgjsCircle1050" r="2.1" cx="330.3463313526982" cy="356.47759065022575" fill="#bbbbbb"/>
        <circle id="SvgjsCircle1051" r="2.1" cx="323.85786437626905" cy="352.14213562373095" fill="#bbbbbb"/>
        <circle id="SvgjsCircle1052" r="2.1" cx="319.52240934977425" cy="345.6536686473018" fill="#bbbbbb"/>
        <circle id="SvgjsCircle1053" r="2.1" cx="318" cy="338" fill="#bbbbbb"/>
        <circle id="SvgjsCircle1054" r="2.1" cx="319.52240934977425" cy="330.3463313526982" fill="#bbbbbb"/>
        <circle id="SvgjsCircle1055" r="2.1" cx="323.85786437626905" cy="323.85786437626905" fill="#bbbbbb"/>
        <circle id="SvgjsCircle1056" r="2.1" cx="330.3463313526982" cy="319.52240934977425" fill="#bbbbbb"/>
        <circle id="SvgjsCircle1057" r="2.1" cx="338" cy="318" fill="#bbbbbb"/>
        <circle id="SvgjsCircle1058" r="2.1" cx="345.6536686473018" cy="319.52240934977425" fill="#bbbbbb"/>
        <circle id="SvgjsCircle1059" r="2.1" cx="352.14213562373095" cy="323.85786437626905" fill="#bbbbbb"/>
        <circle id="SvgjsCircle1060" r="2.1" cx="356.47759065022575" cy="330.3463313526982" fill="#bbbbbb"/>
      </g>
      <g id="SvgjsG1011">
        <line id="SvgjsLine1015" x1="455.10113030371747" y1="620.7071369484538" x2="358" y2="338" stroke="#bbbbbb" stroke-width="2.3"/>
        <line id="SvgjsLine1019" x1="220.89886969628253" y1="620.7071369484538" x2="352.14213562373095" y2="352.14213562373095" stroke="#bbbbbb" stroke-width="2.3"/>
        <line id="SvgjsLine1023" x1="55.29286305154625" y1="455.10113030371747" x2="338" y2="358" stroke="#bbbbbb" stroke-width="2.3"/>
        <line id="SvgjsLine1027" x1="55.29286305154625" y1="220.89886969628256" x2="323.85786437626905" y2="352.14213562373095" stroke="#bbbbbb" stroke-width="2.3"/>
        <line id="SvgjsLine1031" x1="220.89886969628236" y1="55.292863051546306" x2="318" y2="338" stroke="#bbbbbb" stroke-width="2.3"/>
        <line id="SvgjsLine1035" x1="455.1011303037175" y1="55.292863051546306" x2="323.85786437626905" y2="323.85786437626905" stroke="#bbbbbb" stroke-width="2.3"/>
        <line id="SvgjsLine1039" x1="620.7071369484537" y1="220.89886969628236" x2="338" y2="318" stroke="#bbbbbb" stroke-width="2.3"/>
        <line id="SvgjsLine1043" x1="620.7071369484538" y1="455.10113030371747" x2="352.14213562373095" y2="323.85786437626905" stroke="#bbbbbb" stroke-width="2.3"/>
      </g>
    </g>
    <g transform="matrix(0.996195, -0.087155, 0.087155, 0.996195, -5.89984, 16.299683)">
      <title>Valve Stem</title>
      <path d="M 308.228 45.067 C 307.279 45.066 306.41 44.986 305.733 44.852 L 305.734 43.434 C 306.409 43.3 307.279 43.219 308.228 43.22 C 309.181 43.22 310.056 43.301 310.733 43.436 L 310.732 44.85 C 310.056 44.986 309.182 45.067 308.228 45.067 Z M 305.734 44.031 L 310.732 44.031 L 310.732 65.899 L 305.734 65.899 L 305.734 44.031 Z" style="fill: rgb(197, 175, 98); stroke-linecap: round;" transform="matrix(1, 0, 0, 1, 0.000008, -0.000044)"/>
      <path d="M 306.727 64.827 L 310.185 64.827 C 311.091 64.827 312.246 65.562 312.246 66.468 L 311.826 76.959 C 311.826 77.865 309.832 80.021 308.925 80.021 L 307.881 79.965 C 306.975 79.965 305.086 77.865 305.086 76.959 L 304.246 66.468 C 304.246 65.562 305.821 64.827 306.727 64.827 Z" style="fill: rgb(54, 54, 54);"/>
    </g>
  </g>
</svg>